<?xml version="1.0" encoding="utf-8" standalone="no"?>
<!DOCTYPE svg PUBLIC "-//W3C//DTD SVG 1.1//EN"
  "http://www.w3.org/Graphics/SVG/1.1/DTD/svg11.dtd">
<!-- Created with matplotlib (https://matplotlib.org/) -->
<svg height="345.6pt" version="1.1" viewBox="0 0 460.8 345.6" width="460.8pt" xmlns="http://www.w3.org/2000/svg" xmlns:xlink="http://www.w3.org/1999/xlink">
 <defs>
  <style type="text/css">
*{stroke-linecap:butt;stroke-linejoin:round;}
  </style>
 </defs>
 <g id="figure_1">
  <g id="patch_1">
   <path d="M 0 345.6 
L 460.8 345.6 
L 460.8 0 
L 0 0 
z
" style="fill:#ffffff;"/>
  </g>
  <g id="axes_1">
   <g id="patch_2">
    <path d="M 57.6 307.584 
L 414.72 307.584 
L 414.72 41.472 
L 57.6 41.472 
z
" style="fill:#ffffff;"/>
   </g>
   <g id="patch_3">
    <path clip-path="url(#p2b92c8c4be)" d="M 73.832729 307.584 
L 80.32582 307.584 
L 80.32582 307.112009 
L 73.832729 307.112009 
z
" style="fill:#1f77b4;opacity:0.4;"/>
   </g>
   <g id="patch_4">
    <path clip-path="url(#p2b92c8c4be)" d="M 80.32582 307.584 
L 86.818911 307.584 
L 86.818911 307.584 
L 80.32582 307.584 
z
" style="fill:#1f77b4;opacity:0.4;"/>
   </g>
   <g id="patch_5">
    <path clip-path="url(#p2b92c8c4be)" d="M 86.818911 307.584 
L 93.312002 307.584 
L 93.312002 307.584 
L 86.818911 307.584 
z
" style="fill:#1f77b4;opacity:0.4;"/>
   </g>
   <g id="patch_6">
    <path clip-path="url(#p2b92c8c4be)" d="M 93.312002 307.584 
L 99.805092 307.584 
L 99.805092 307.584 
L 93.312002 307.584 
z
" style="fill:#1f77b4;opacity:0.4;"/>
   </g>
   <g id="patch_7">
    <path clip-path="url(#p2b92c8c4be)" d="M 99.805092 307.584 
L 106.298183 307.584 
L 106.298183 307.584 
L 99.805092 307.584 
z
" style="fill:#1f77b4;opacity:0.4;"/>
   </g>
   <g id="patch_8">
    <path clip-path="url(#p2b92c8c4be)" d="M 106.298183 307.584 
L 112.791274 307.584 
L 112.791274 307.584 
L 106.298183 307.584 
z
" style="fill:#1f77b4;opacity:0.4;"/>
   </g>
   <g id="patch_9">
    <path clip-path="url(#p2b92c8c4be)" d="M 112.791274 307.584 
L 119.284365 307.584 
L 119.284365 307.584 
L 112.791274 307.584 
z
" style="fill:#1f77b4;opacity:0.4;"/>
   </g>
   <g id="patch_10">
    <path clip-path="url(#p2b92c8c4be)" d="M 119.284365 307.584 
L 125.777456 307.584 
L 125.777456 307.584 
L 119.284365 307.584 
z
" style="fill:#1f77b4;opacity:0.4;"/>
   </g>
   <g id="patch_11">
    <path clip-path="url(#p2b92c8c4be)" d="M 125.777456 307.584 
L 132.270547 307.584 
L 132.270547 307.584 
L 125.777456 307.584 
z
" style="fill:#1f77b4;opacity:0.4;"/>
   </g>
   <g id="patch_12">
    <path clip-path="url(#p2b92c8c4be)" d="M 132.270547 307.584 
L 138.763637 307.584 
L 138.763637 307.584 
L 132.270547 307.584 
z
" style="fill:#1f77b4;opacity:0.4;"/>
   </g>
   <g id="patch_13">
    <path clip-path="url(#p2b92c8c4be)" d="M 138.763637 307.584 
L 145.256728 307.584 
L 145.256728 307.584 
L 138.763637 307.584 
z
" style="fill:#1f77b4;opacity:0.4;"/>
   </g>
   <g id="patch_14">
    <path clip-path="url(#p2b92c8c4be)" d="M 145.256728 307.584 
L 151.749819 307.584 
L 151.749819 307.584 
L 145.256728 307.584 
z
" style="fill:#1f77b4;opacity:0.4;"/>
   </g>
   <g id="patch_15">
    <path clip-path="url(#p2b92c8c4be)" d="M 151.749819 307.584 
L 158.24291 307.584 
L 158.24291 307.584 
L 151.749819 307.584 
z
" style="fill:#1f77b4;opacity:0.4;"/>
   </g>
   <g id="patch_16">
    <path clip-path="url(#p2b92c8c4be)" d="M 158.24291 307.584 
L 164.736001 307.584 
L 164.736001 307.584 
L 158.24291 307.584 
z
" style="fill:#1f77b4;opacity:0.4;"/>
   </g>
   <g id="patch_17">
    <path clip-path="url(#p2b92c8c4be)" d="M 164.736001 307.584 
L 171.229092 307.584 
L 171.229092 307.584 
L 164.736001 307.584 
z
" style="fill:#1f77b4;opacity:0.4;"/>
   </g>
   <g id="patch_18">
    <path clip-path="url(#p2b92c8c4be)" d="M 171.229092 307.584 
L 177.722182 307.584 
L 177.722182 307.584 
L 171.229092 307.584 
z
" style="fill:#1f77b4;opacity:0.4;"/>
   </g>
   <g id="patch_19">
    <path clip-path="url(#p2b92c8c4be)" d="M 177.722182 307.584 
L 184.215273 307.584 
L 184.215273 307.584 
L 177.722182 307.584 
z
" style="fill:#1f77b4;opacity:0.4;"/>
   </g>
   <g id="patch_20">
    <path clip-path="url(#p2b92c8c4be)" d="M 184.215273 307.584 
L 190.708364 307.584 
L 190.708364 307.584 
L 184.215273 307.584 
z
" style="fill:#1f77b4;opacity:0.4;"/>
   </g>
   <g id="patch_21">
    <path clip-path="url(#p2b92c8c4be)" d="M 190.708364 307.584 
L 197.201455 307.584 
L 197.201455 307.112009 
L 190.708364 307.112009 
z
" style="fill:#1f77b4;opacity:0.4;"/>
   </g>
   <g id="patch_22">
    <path clip-path="url(#p2b92c8c4be)" d="M 197.201455 307.584 
L 203.694546 307.584 
L 203.694546 307.584 
L 197.201455 307.584 
z
" style="fill:#1f77b4;opacity:0.4;"/>
   </g>
   <g id="patch_23">
    <path clip-path="url(#p2b92c8c4be)" d="M 203.694546 307.584 
L 210.187637 307.584 
L 210.187637 307.584 
L 203.694546 307.584 
z
" style="fill:#1f77b4;opacity:0.4;"/>
   </g>
   <g id="patch_24">
    <path clip-path="url(#p2b92c8c4be)" d="M 210.187637 307.584 
L 216.680727 307.584 
L 216.680727 307.584 
L 210.187637 307.584 
z
" style="fill:#1f77b4;opacity:0.4;"/>
   </g>
   <g id="patch_25">
    <path clip-path="url(#p2b92c8c4be)" d="M 216.680727 307.584 
L 223.173818 307.584 
L 223.173818 307.112009 
L 216.680727 307.112009 
z
" style="fill:#1f77b4;opacity:0.4;"/>
   </g>
   <g id="patch_26">
    <path clip-path="url(#p2b92c8c4be)" d="M 223.173818 307.584 
L 229.666909 307.584 
L 229.666909 307.584 
L 223.173818 307.584 
z
" style="fill:#1f77b4;opacity:0.4;"/>
   </g>
   <g id="patch_27">
    <path clip-path="url(#p2b92c8c4be)" d="M 229.666909 307.584 
L 236.16 307.584 
L 236.16 307.584 
L 229.666909 307.584 
z
" style="fill:#1f77b4;opacity:0.4;"/>
   </g>
   <g id="patch_28">
    <path clip-path="url(#p2b92c8c4be)" d="M 236.16 307.584 
L 242.653091 307.584 
L 242.653091 307.584 
L 236.16 307.584 
z
" style="fill:#1f77b4;opacity:0.4;"/>
   </g>
   <g id="patch_29">
    <path clip-path="url(#p2b92c8c4be)" d="M 242.653091 307.584 
L 249.146182 307.584 
L 249.146182 307.584 
L 242.653091 307.584 
z
" style="fill:#1f77b4;opacity:0.4;"/>
   </g>
   <g id="patch_30">
    <path clip-path="url(#p2b92c8c4be)" d="M 249.146182 307.584 
L 255.639273 307.584 
L 255.639273 307.584 
L 249.146182 307.584 
z
" style="fill:#1f77b4;opacity:0.4;"/>
   </g>
   <g id="patch_31">
    <path clip-path="url(#p2b92c8c4be)" d="M 255.639273 307.584 
L 262.132363 307.584 
L 262.132363 307.584 
L 255.639273 307.584 
z
" style="fill:#1f77b4;opacity:0.4;"/>
   </g>
   <g id="patch_32">
    <path clip-path="url(#p2b92c8c4be)" d="M 262.132363 307.584 
L 268.625454 307.584 
L 268.625454 307.584 
L 262.132363 307.584 
z
" style="fill:#1f77b4;opacity:0.4;"/>
   </g>
   <g id="patch_33">
    <path clip-path="url(#p2b92c8c4be)" d="M 268.625454 307.584 
L 275.118545 307.584 
L 275.118545 307.112009 
L 268.625454 307.112009 
z
" style="fill:#1f77b4;opacity:0.4;"/>
   </g>
   <g id="patch_34">
    <path clip-path="url(#p2b92c8c4be)" d="M 275.118545 307.584 
L 281.611636 307.584 
L 281.611636 307.584 
L 275.118545 307.584 
z
" style="fill:#1f77b4;opacity:0.4;"/>
   </g>
   <g id="patch_35">
    <path clip-path="url(#p2b92c8c4be)" d="M 281.611636 307.584 
L 288.104727 307.584 
L 288.104727 307.584 
L 281.611636 307.584 
z
" style="fill:#1f77b4;opacity:0.4;"/>
   </g>
   <g id="patch_36">
    <path clip-path="url(#p2b92c8c4be)" d="M 288.104727 307.584 
L 294.597818 307.584 
L 294.597818 307.584 
L 288.104727 307.584 
z
" style="fill:#1f77b4;opacity:0.4;"/>
   </g>
   <g id="patch_37">
    <path clip-path="url(#p2b92c8c4be)" d="M 294.597818 307.584 
L 301.090908 307.584 
L 301.090908 307.584 
L 294.597818 307.584 
z
" style="fill:#1f77b4;opacity:0.4;"/>
   </g>
   <g id="patch_38">
    <path clip-path="url(#p2b92c8c4be)" d="M 301.090908 307.584 
L 307.583999 307.584 
L 307.583999 307.584 
L 301.090908 307.584 
z
" style="fill:#1f77b4;opacity:0.4;"/>
   </g>
   <g id="patch_39">
    <path clip-path="url(#p2b92c8c4be)" d="M 307.583999 307.584 
L 314.07709 307.584 
L 314.07709 307.584 
L 307.583999 307.584 
z
" style="fill:#1f77b4;opacity:0.4;"/>
   </g>
   <g id="patch_40">
    <path clip-path="url(#p2b92c8c4be)" d="M 314.07709 307.584 
L 320.570181 307.584 
L 320.570181 307.584 
L 314.07709 307.584 
z
" style="fill:#1f77b4;opacity:0.4;"/>
   </g>
   <g id="patch_41">
    <path clip-path="url(#p2b92c8c4be)" d="M 320.570181 307.584 
L 327.063272 307.584 
L 327.063272 307.584 
L 320.570181 307.584 
z
" style="fill:#1f77b4;opacity:0.4;"/>
   </g>
   <g id="patch_42">
    <path clip-path="url(#p2b92c8c4be)" d="M 327.063272 307.584 
L 333.556363 307.584 
L 333.556363 307.584 
L 327.063272 307.584 
z
" style="fill:#1f77b4;opacity:0.4;"/>
   </g>
   <g id="patch_43">
    <path clip-path="url(#p2b92c8c4be)" d="M 333.556363 307.584 
L 340.049453 307.584 
L 340.049453 307.584 
L 333.556363 307.584 
z
" style="fill:#1f77b4;opacity:0.4;"/>
   </g>
   <g id="patch_44">
    <path clip-path="url(#p2b92c8c4be)" d="M 340.049453 307.584 
L 346.542544 307.584 
L 346.542544 307.584 
L 340.049453 307.584 
z
" style="fill:#1f77b4;opacity:0.4;"/>
   </g>
   <g id="patch_45">
    <path clip-path="url(#p2b92c8c4be)" d="M 346.542544 307.584 
L 353.035635 307.584 
L 353.035635 307.584 
L 346.542544 307.584 
z
" style="fill:#1f77b4;opacity:0.4;"/>
   </g>
   <g id="patch_46">
    <path clip-path="url(#p2b92c8c4be)" d="M 353.035635 307.584 
L 359.528726 307.584 
L 359.528726 307.584 
L 353.035635 307.584 
z
" style="fill:#1f77b4;opacity:0.4;"/>
   </g>
   <g id="patch_47">
    <path clip-path="url(#p2b92c8c4be)" d="M 359.528726 307.584 
L 366.021817 307.584 
L 366.021817 307.112009 
L 359.528726 307.112009 
z
" style="fill:#1f77b4;opacity:0.4;"/>
   </g>
   <g id="patch_48">
    <path clip-path="url(#p2b92c8c4be)" d="M 366.021817 307.584 
L 372.514908 307.584 
L 372.514908 307.584 
L 366.021817 307.584 
z
" style="fill:#1f77b4;opacity:0.4;"/>
   </g>
   <g id="patch_49">
    <path clip-path="url(#p2b92c8c4be)" d="M 372.514908 307.584 
L 379.007998 307.584 
L 379.007998 307.584 
L 372.514908 307.584 
z
" style="fill:#1f77b4;opacity:0.4;"/>
   </g>
   <g id="patch_50">
    <path clip-path="url(#p2b92c8c4be)" d="M 379.007998 307.584 
L 385.501089 307.584 
L 385.501089 307.584 
L 379.007998 307.584 
z
" style="fill:#1f77b4;opacity:0.4;"/>
   </g>
   <g id="patch_51">
    <path clip-path="url(#p2b92c8c4be)" d="M 385.501089 307.584 
L 391.99418 307.584 
L 391.99418 307.584 
L 385.501089 307.584 
z
" style="fill:#1f77b4;opacity:0.4;"/>
   </g>
   <g id="patch_52">
    <path clip-path="url(#p2b92c8c4be)" d="M 391.99418 307.584 
L 398.487271 307.584 
L 398.487271 222.153613 
L 391.99418 222.153613 
z
" style="fill:#1f77b4;opacity:0.4;"/>
   </g>
   <g id="matplotlib.axis_1">
    <g id="xtick_1">
     <g id="line2d_1">
      <defs>
       <path d="M 0 0 
L 0 3.5 
" id="m166b64618f" style="stroke:#000000;stroke-width:0.8;"/>
      </defs>
      <g>
       <use style="stroke:#000000;stroke-width:0.8;" x="87.672838" xlink:href="#m166b64618f" y="307.584"/>
      </g>
     </g>
     <g id="text_1">
      <!-- 0.220 -->
      <defs>
       <path d="M 31.78125 66.40625 
Q 24.171875 66.40625 20.328125 58.90625 
Q 16.5 51.421875 16.5 36.375 
Q 16.5 21.390625 20.328125 13.890625 
Q 24.171875 6.390625 31.78125 6.390625 
Q 39.453125 6.390625 43.28125 13.890625 
Q 47.125 21.390625 47.125 36.375 
Q 47.125 51.421875 43.28125 58.90625 
Q 39.453125 66.40625 31.78125 66.40625 
z
M 31.78125 74.21875 
Q 44.046875 74.21875 50.515625 64.515625 
Q 56.984375 54.828125 56.984375 36.375 
Q 56.984375 17.96875 50.515625 8.265625 
Q 44.046875 -1.421875 31.78125 -1.421875 
Q 19.53125 -1.421875 13.0625 8.265625 
Q 6.59375 17.96875 6.59375 36.375 
Q 6.59375 54.828125 13.0625 64.515625 
Q 19.53125 74.21875 31.78125 74.21875 
z
" id="DejaVuSans-48"/>
       <path d="M 10.6875 12.40625 
L 21 12.40625 
L 21 0 
L 10.6875 0 
z
" id="DejaVuSans-46"/>
       <path d="M 19.1875 8.296875 
L 53.609375 8.296875 
L 53.609375 0 
L 7.328125 0 
L 7.328125 8.296875 
Q 12.9375 14.109375 22.625 23.890625 
Q 32.328125 33.6875 34.8125 36.53125 
Q 39.546875 41.84375 41.421875 45.53125 
Q 43.3125 49.21875 43.3125 52.78125 
Q 43.3125 58.59375 39.234375 62.25 
Q 35.15625 65.921875 28.609375 65.921875 
Q 23.96875 65.921875 18.8125 64.3125 
Q 13.671875 62.703125 7.8125 59.421875 
L 7.8125 69.390625 
Q 13.765625 71.78125 18.9375 73 
Q 24.125 74.21875 28.421875 74.21875 
Q 39.75 74.21875 46.484375 68.546875 
Q 53.21875 62.890625 53.21875 53.421875 
Q 53.21875 48.921875 51.53125 44.890625 
Q 49.859375 40.875 45.40625 35.40625 
Q 44.1875 33.984375 37.640625 27.21875 
Q 31.109375 20.453125 19.1875 8.296875 
z
" id="DejaVuSans-50"/>
      </defs>
      <g transform="translate(73.358776 322.182437)scale(0.1 -0.1)">
       <use xlink:href="#DejaVuSans-48"/>
       <use x="63.623047" xlink:href="#DejaVuSans-46"/>
       <use x="95.410156" xlink:href="#DejaVuSans-50"/>
       <use x="159.033203" xlink:href="#DejaVuSans-50"/>
       <use x="222.65625" xlink:href="#DejaVuSans-48"/>
      </g>
     </g>
    </g>
    <g id="xtick_2">
     <g id="line2d_2">
      <g>
       <use style="stroke:#000000;stroke-width:0.8;" x="146.415657" xlink:href="#m166b64618f" y="307.584"/>
      </g>
     </g>
     <g id="text_2">
      <!-- 0.225 -->
      <defs>
       <path d="M 10.796875 72.90625 
L 49.515625 72.90625 
L 49.515625 64.59375 
L 19.828125 64.59375 
L 19.828125 46.734375 
Q 21.96875 47.46875 24.109375 47.828125 
Q 26.265625 48.1875 28.421875 48.1875 
Q 40.625 48.1875 47.75 41.5 
Q 54.890625 34.8125 54.890625 23.390625 
Q 54.890625 11.625 47.5625 5.09375 
Q 40.234375 -1.421875 26.90625 -1.421875 
Q 22.3125 -1.421875 17.546875 -0.640625 
Q 12.796875 0.140625 7.71875 1.703125 
L 7.71875 11.625 
Q 12.109375 9.234375 16.796875 8.0625 
Q 21.484375 6.890625 26.703125 6.890625 
Q 35.15625 6.890625 40.078125 11.328125 
Q 45.015625 15.765625 45.015625 23.390625 
Q 45.015625 31 40.078125 35.4375 
Q 35.15625 39.890625 26.703125 39.890625 
Q 22.75 39.890625 18.8125 39.015625 
Q 14.890625 38.140625 10.796875 36.28125 
z
" id="DejaVuSans-53"/>
      </defs>
      <g transform="translate(132.101594 322.182437)scale(0.1 -0.1)">
       <use xlink:href="#DejaVuSans-48"/>
       <use x="63.623047" xlink:href="#DejaVuSans-46"/>
       <use x="95.410156" xlink:href="#DejaVuSans-50"/>
       <use x="159.033203" xlink:href="#DejaVuSans-50"/>
       <use x="222.65625" xlink:href="#DejaVuSans-53"/>
      </g>
     </g>
    </g>
    <g id="xtick_3">
     <g id="line2d_3">
      <g>
       <use style="stroke:#000000;stroke-width:0.8;" x="205.158475" xlink:href="#m166b64618f" y="307.584"/>
      </g>
     </g>
     <g id="text_3">
      <!-- 0.230 -->
      <defs>
       <path d="M 40.578125 39.3125 
Q 47.65625 37.796875 51.625 33 
Q 55.609375 28.21875 55.609375 21.1875 
Q 55.609375 10.40625 48.1875 4.484375 
Q 40.765625 -1.421875 27.09375 -1.421875 
Q 22.515625 -1.421875 17.65625 -0.515625 
Q 12.796875 0.390625 7.625 2.203125 
L 7.625 11.71875 
Q 11.71875 9.328125 16.59375 8.109375 
Q 21.484375 6.890625 26.8125 6.890625 
Q 36.078125 6.890625 40.9375 10.546875 
Q 45.796875 14.203125 45.796875 21.1875 
Q 45.796875 27.640625 41.28125 31.265625 
Q 36.765625 34.90625 28.71875 34.90625 
L 20.21875 34.90625 
L 20.21875 43.015625 
L 29.109375 43.015625 
Q 36.375 43.015625 40.234375 45.921875 
Q 44.09375 48.828125 44.09375 54.296875 
Q 44.09375 59.90625 40.109375 62.90625 
Q 36.140625 65.921875 28.71875 65.921875 
Q 24.65625 65.921875 20.015625 65.03125 
Q 15.375 64.15625 9.8125 62.3125 
L 9.8125 71.09375 
Q 15.4375 72.65625 20.34375 73.4375 
Q 25.25 74.21875 29.59375 74.21875 
Q 40.828125 74.21875 47.359375 69.109375 
Q 53.90625 64.015625 53.90625 55.328125 
Q 53.90625 49.265625 50.4375 45.09375 
Q 46.96875 40.921875 40.578125 39.3125 
z
" id="DejaVuSans-51"/>
      </defs>
      <g transform="translate(190.844413 322.182437)scale(0.1 -0.1)">
       <use xlink:href="#DejaVuSans-48"/>
       <use x="63.623047" xlink:href="#DejaVuSans-46"/>
       <use x="95.410156" xlink:href="#DejaVuSans-50"/>
       <use x="159.033203" xlink:href="#DejaVuSans-51"/>
       <use x="222.65625" xlink:href="#DejaVuSans-48"/>
      </g>
     </g>
    </g>
    <g id="xtick_4">
     <g id="line2d_4">
      <g>
       <use style="stroke:#000000;stroke-width:0.8;" x="263.901294" xlink:href="#m166b64618f" y="307.584"/>
      </g>
     </g>
     <g id="text_4">
      <!-- 0.235 -->
      <g transform="translate(249.587231 322.182437)scale(0.1 -0.1)">
       <use xlink:href="#DejaVuSans-48"/>
       <use x="63.623047" xlink:href="#DejaVuSans-46"/>
       <use x="95.410156" xlink:href="#DejaVuSans-50"/>
       <use x="159.033203" xlink:href="#DejaVuSans-51"/>
       <use x="222.65625" xlink:href="#DejaVuSans-53"/>
      </g>
     </g>
    </g>
    <g id="xtick_5">
     <g id="line2d_5">
      <g>
       <use style="stroke:#000000;stroke-width:0.8;" x="322.644112" xlink:href="#m166b64618f" y="307.584"/>
      </g>
     </g>
     <g id="text_5">
      <!-- 0.240 -->
      <defs>
       <path d="M 37.796875 64.3125 
L 12.890625 25.390625 
L 37.796875 25.390625 
z
M 35.203125 72.90625 
L 47.609375 72.90625 
L 47.609375 25.390625 
L 58.015625 25.390625 
L 58.015625 17.1875 
L 47.609375 17.1875 
L 47.609375 0 
L 37.796875 0 
L 37.796875 17.1875 
L 4.890625 17.1875 
L 4.890625 26.703125 
z
" id="DejaVuSans-52"/>
      </defs>
      <g transform="translate(308.330049 322.182437)scale(0.1 -0.1)">
       <use xlink:href="#DejaVuSans-48"/>
       <use x="63.623047" xlink:href="#DejaVuSans-46"/>
       <use x="95.410156" xlink:href="#DejaVuSans-50"/>
       <use x="159.033203" xlink:href="#DejaVuSans-52"/>
       <use x="222.65625" xlink:href="#DejaVuSans-48"/>
      </g>
     </g>
    </g>
    <g id="xtick_6">
     <g id="line2d_6">
      <g>
       <use style="stroke:#000000;stroke-width:0.8;" x="381.38693" xlink:href="#m166b64618f" y="307.584"/>
      </g>
     </g>
     <g id="text_6">
      <!-- 0.245 -->
      <g transform="translate(367.072868 322.182437)scale(0.1 -0.1)">
       <use xlink:href="#DejaVuSans-48"/>
       <use x="63.623047" xlink:href="#DejaVuSans-46"/>
       <use x="95.410156" xlink:href="#DejaVuSans-50"/>
       <use x="159.033203" xlink:href="#DejaVuSans-52"/>
       <use x="222.65625" xlink:href="#DejaVuSans-53"/>
      </g>
     </g>
    </g>
   </g>
   <g id="matplotlib.axis_2">
    <g id="ytick_1">
     <g id="line2d_7">
      <defs>
       <path d="M 0 0 
L -3.5 0 
" id="m7251157bb3" style="stroke:#000000;stroke-width:0.8;"/>
      </defs>
      <g>
       <use style="stroke:#000000;stroke-width:0.8;" x="57.6" xlink:href="#m7251157bb3" y="307.584"/>
      </g>
     </g>
     <g id="text_7">
      <!-- 0 -->
      <g transform="translate(44.2375 311.383219)scale(0.1 -0.1)">
       <use xlink:href="#DejaVuSans-48"/>
      </g>
     </g>
    </g>
    <g id="ytick_2">
     <g id="line2d_8">
      <g>
       <use style="stroke:#000000;stroke-width:0.8;" x="57.6" xlink:href="#m7251157bb3" y="259.064821"/>
      </g>
     </g>
     <g id="text_8">
      <!-- 1000 -->
      <defs>
       <path d="M 12.40625 8.296875 
L 28.515625 8.296875 
L 28.515625 63.921875 
L 10.984375 60.40625 
L 10.984375 69.390625 
L 28.421875 72.90625 
L 38.28125 72.90625 
L 38.28125 8.296875 
L 54.390625 8.296875 
L 54.390625 0 
L 12.40625 0 
z
" id="DejaVuSans-49"/>
      </defs>
      <g transform="translate(25.15 262.864039)scale(0.1 -0.1)">
       <use xlink:href="#DejaVuSans-49"/>
       <use x="63.623047" xlink:href="#DejaVuSans-48"/>
       <use x="127.246094" xlink:href="#DejaVuSans-48"/>
       <use x="190.869141" xlink:href="#DejaVuSans-48"/>
      </g>
     </g>
    </g>
    <g id="ytick_3">
     <g id="line2d_9">
      <g>
       <use style="stroke:#000000;stroke-width:0.8;" x="57.6" xlink:href="#m7251157bb3" y="210.545641"/>
      </g>
     </g>
     <g id="text_9">
      <!-- 2000 -->
      <g transform="translate(25.15 214.34486)scale(0.1 -0.1)">
       <use xlink:href="#DejaVuSans-50"/>
       <use x="63.623047" xlink:href="#DejaVuSans-48"/>
       <use x="127.246094" xlink:href="#DejaVuSans-48"/>
       <use x="190.869141" xlink:href="#DejaVuSans-48"/>
      </g>
     </g>
    </g>
    <g id="ytick_4">
     <g id="line2d_10">
      <g>
       <use style="stroke:#000000;stroke-width:0.8;" x="57.6" xlink:href="#m7251157bb3" y="162.026462"/>
      </g>
     </g>
     <g id="text_10">
      <!-- 3000 -->
      <g transform="translate(25.15 165.825681)scale(0.1 -0.1)">
       <use xlink:href="#DejaVuSans-51"/>
       <use x="63.623047" xlink:href="#DejaVuSans-48"/>
       <use x="127.246094" xlink:href="#DejaVuSans-48"/>
       <use x="190.869141" xlink:href="#DejaVuSans-48"/>
      </g>
     </g>
    </g>
    <g id="ytick_5">
     <g id="line2d_11">
      <g>
       <use style="stroke:#000000;stroke-width:0.8;" x="57.6" xlink:href="#m7251157bb3" y="113.507283"/>
      </g>
     </g>
     <g id="text_11">
      <!-- 4000 -->
      <g transform="translate(25.15 117.306502)scale(0.1 -0.1)">
       <use xlink:href="#DejaVuSans-52"/>
       <use x="63.623047" xlink:href="#DejaVuSans-48"/>
       <use x="127.246094" xlink:href="#DejaVuSans-48"/>
       <use x="190.869141" xlink:href="#DejaVuSans-48"/>
      </g>
     </g>
    </g>
    <g id="ytick_6">
     <g id="line2d_12">
      <g>
       <use style="stroke:#000000;stroke-width:0.8;" x="57.6" xlink:href="#m7251157bb3" y="64.988103"/>
      </g>
     </g>
     <g id="text_12">
      <!-- 5000 -->
      <g transform="translate(25.15 68.787322)scale(0.1 -0.1)">
       <use xlink:href="#DejaVuSans-53"/>
       <use x="63.623047" xlink:href="#DejaVuSans-48"/>
       <use x="127.246094" xlink:href="#DejaVuSans-48"/>
       <use x="190.869141" xlink:href="#DejaVuSans-48"/>
      </g>
     </g>
    </g>
   </g>
   <g id="line2d_13">
    <path clip-path="url(#p2b92c8c4be)" d="M 73.832727 283.816785 
L 76.389062 307.584 
L 78.945397 293.649555 
L 81.501732 307.584 
L 84.058067 298.817236 
L 86.614402 307.584 
L 89.170737 301.590892 
L 91.727072 307.584 
L 94.283407 303.233086 
L 96.839742 307.584 
L 99.396077 304.280182 
L 101.952412 307.584 
L 104.508747 304.98612 
L 107.065082 307.584 
L 109.621417 305.483083 
L 112.177752 307.584 
L 114.734087 305.845195 
L 117.290422 307.584 
L 119.846757 306.116543 
L 122.403092 307.584 
L 124.959427 306.324639 
L 127.515762 307.584 
L 130.072097 306.487337 
L 132.628432 307.584 
L 135.184767 306.616613 
L 137.741102 307.584 
L 140.297437 306.720726 
L 142.853772 307.584 
L 145.410107 306.805503 
L 147.966442 307.584 
L 150.522777 306.875129 
L 153.079112 307.584 
L 155.635447 306.932643 
L 158.191782 307.584 
L 160.748117 306.980236 
L 163.304452 307.584 
L 165.860787 307.019412 
L 168.417122 307.584 
L 170.973457 307.050967 
L 173.529792 307.584 
L 176.086127 307.074562 
L 178.642462 307.584 
L 181.198797 307.086652 
L 183.755132 307.584 
L 186.311467 307.066611 
L 188.867802 307.584 
L 191.424137 306.445162 
L 193.980472 307.334098 
L 196.536807 307.277716 
L 199.093142 307.584 
L 201.649477 307.182474 
L 204.205812 307.584 
L 206.762147 307.156031 
L 209.318482 307.584 
L 211.874817 307.123109 
L 214.431152 307.584 
L 216.987487 307.05175 
L 219.543822 307.584 
L 222.100157 305.724779 
L 224.656492 307.584 
L 227.212827 306.987032 
L 229.769162 307.584 
L 232.325497 307.117214 
L 234.881832 307.584 
L 237.438168 307.166045 
L 239.994503 307.584 
L 242.550838 307.191076 
L 245.107173 307.584 
L 247.663508 307.207502 
L 250.219843 307.584 
L 252.776178 307.222774 
L 255.332513 307.584 
L 257.888848 307.244822 
L 260.445183 307.584 
L 263.001518 307.290427 
L 265.557853 307.584 
L 268.114188 307.283819 
L 270.670523 306.507096 
L 273.226858 307.573821 
L 275.783193 307.584 
L 278.339528 307.281437 
L 280.895863 307.584 
L 283.452198 307.18576 
L 286.008533 307.584 
L 288.564868 307.127729 
L 291.121203 307.584 
L 293.677538 307.079867 
L 296.233873 307.584 
L 298.790208 307.033041 
L 301.346543 307.584 
L 303.902878 306.982799 
L 306.459213 307.584 
L 309.015548 306.926096 
L 311.571883 307.584 
L 314.128218 306.860152 
L 316.684553 307.584 
L 319.240888 306.781878 
L 321.797223 307.584 
L 324.353558 306.687445 
L 326.909893 307.584 
L 329.466228 306.571786 
L 332.022563 307.584 
L 334.578898 306.427904 
L 337.135233 307.584 
L 339.691568 306.24576 
L 342.247903 307.584 
L 344.804238 306.010288 
L 347.360573 307.584 
L 349.916908 305.697016 
L 352.473243 307.584 
L 355.029578 305.255794 
L 357.585913 307.584 
L 360.142248 304.123013 
L 362.698583 307.584 
L 365.254918 304.048283 
L 367.811253 307.584 
L 370.367588 302.65987 
L 372.923923 307.584 
L 375.480258 300.572042 
L 378.036593 307.584 
L 380.592928 296.880556 
L 383.149263 307.584 
L 385.705598 289.249558 
L 388.261933 307.584 
L 390.818268 268.160033 
L 393.374603 307.584 
L 395.930938 54.144 
L 398.487273 307.584 
L 398.487273 307.584 
" style="fill:none;stroke:#1f77b4;stroke-linecap:square;stroke-width:1.5;"/>
   </g>
   <g id="patch_53">
    <path d="M 57.6 307.584 
L 57.6 41.472 
" style="fill:none;stroke:#000000;stroke-linecap:square;stroke-linejoin:miter;stroke-width:0.8;"/>
   </g>
   <g id="patch_54">
    <path d="M 414.72 307.584 
L 414.72 41.472 
" style="fill:none;stroke:#000000;stroke-linecap:square;stroke-linejoin:miter;stroke-width:0.8;"/>
   </g>
   <g id="patch_55">
    <path d="M 57.6 307.584 
L 414.72 307.584 
" style="fill:none;stroke:#000000;stroke-linecap:square;stroke-linejoin:miter;stroke-width:0.8;"/>
   </g>
   <g id="patch_56">
    <path d="M 57.6 41.472 
L 414.72 41.472 
" style="fill:none;stroke:#000000;stroke-linecap:square;stroke-linejoin:miter;stroke-width:0.8;"/>
   </g>
  </g>
 </g>
 <defs>
  <clipPath id="p2b92c8c4be">
   <rect height="266.112" width="357.12" x="57.6" y="41.472"/>
  </clipPath>
 </defs>
</svg>
