<?xml version="1.0" encoding="UTF-8" standalone="no"?>
<!DOCTYPE svg PUBLIC "-//W3C//DTD SVG 1.1//EN"
 "http://www.w3.org/Graphics/SVG/1.1/DTD/svg11.dtd">
<!-- Generated by graphviz version 2.42.3 (20191010.1750)
 -->
<!-- Title: snakemake_dag Pages: 1 -->
<svg width="491pt" height="332pt"
 viewBox="0.00 0.00 491.24 332.00" xmlns="http://www.w3.org/2000/svg" xmlns:xlink="http://www.w3.org/1999/xlink">
<g id="graph0" class="graph" transform="scale(1 1) rotate(0) translate(4 328)">
<title>snakemake_dag</title>
<polygon fill="white" stroke="transparent" points="-4,4 -4,-328 487.24,-328 487.24,4 -4,4"/>
<!-- 0 -->
<g id="node1" class="node">
<title>0</title>
<path fill="none" stroke="#56d8b9" stroke-width="2" d="M199.24,-36C199.24,-36 169.24,-36 169.24,-36 163.24,-36 157.24,-30 157.24,-24 157.24,-24 157.24,-12 157.24,-12 157.24,-6 163.24,0 169.24,0 169.24,0 199.24,0 199.24,0 205.24,0 211.24,-6 211.24,-12 211.24,-12 211.24,-24 211.24,-24 211.24,-30 205.24,-36 199.24,-36"/>
<text text-anchor="middle" x="184.24" y="-15.5" font-family="sans" font-size="10.00">all</text>
</g>
<!-- 1 -->
<g id="node2" class="node">
<title>1</title>
<path fill="none" stroke="#56d86b" stroke-width="2" stroke-dasharray="5,2" d="M104.74,-180C104.74,-180 27.74,-180 27.74,-180 21.74,-180 15.74,-174 15.74,-168 15.74,-168 15.74,-156 15.74,-156 15.74,-150 21.74,-144 27.74,-144 27.74,-144 104.74,-144 104.74,-144 110.74,-144 116.74,-150 116.74,-156 116.74,-156 116.74,-168 116.74,-168 116.74,-174 110.74,-180 104.74,-180"/>
<text text-anchor="middle" x="66.24" y="-159.5" font-family="sans" font-size="10.00">media_and_rates</text>
</g>
<!-- 1&#45;&gt;0 -->
<g id="edge1" class="edge">
<title>1&#45;&gt;0</title>
<path fill="none" stroke="grey" stroke-width="2" d="M37.98,-143.97C25.81,-134.96 12.87,-122.7 6.24,-108 -0.34,-93.41 -3.32,-84.83 6.24,-72 23.08,-49.41 99.9,-32.96 146.94,-24.8"/>
<polygon fill="grey" stroke="grey" stroke-width="2" points="147.79,-28.2 157.07,-23.09 146.63,-21.3 147.79,-28.2"/>
</g>
<!-- 5 -->
<g id="node6" class="node">
<title>5</title>
<path fill="none" stroke="#567bd8" stroke-width="2" stroke-dasharray="5,2" d="M105.24,-108C105.24,-108 27.24,-108 27.24,-108 21.24,-108 15.24,-102 15.24,-96 15.24,-96 15.24,-84 15.24,-84 15.24,-78 21.24,-72 27.24,-72 27.24,-72 105.24,-72 105.24,-72 111.24,-72 117.24,-78 117.24,-84 117.24,-84 117.24,-96 117.24,-96 117.24,-102 111.24,-108 105.24,-108"/>
<text text-anchor="middle" x="66.24" y="-87.5" font-family="sans" font-size="10.00">exchange_figures</text>
</g>
<!-- 1&#45;&gt;5 -->
<g id="edge11" class="edge">
<title>1&#45;&gt;5</title>
<path fill="none" stroke="grey" stroke-width="2" d="M66.24,-143.7C66.24,-135.98 66.24,-126.71 66.24,-118.11"/>
<polygon fill="grey" stroke="grey" stroke-width="2" points="69.74,-118.1 66.24,-108.1 62.74,-118.1 69.74,-118.1"/>
</g>
<!-- 2 -->
<g id="node3" class="node">
<title>2</title>
<path fill="none" stroke="#d8a456" stroke-width="2" stroke-dasharray="5,2" d="M244.74,-180C244.74,-180 201.74,-180 201.74,-180 195.74,-180 189.74,-174 189.74,-168 189.74,-168 189.74,-156 189.74,-156 189.74,-150 195.74,-144 201.74,-144 201.74,-144 244.74,-144 244.74,-144 250.74,-144 256.74,-150 256.74,-156 256.74,-156 256.74,-168 256.74,-168 256.74,-174 250.74,-180 244.74,-180"/>
<text text-anchor="middle" x="223.24" y="-159.5" font-family="sans" font-size="10.00">knockouts</text>
</g>
<!-- 2&#45;&gt;0 -->
<g id="edge2" class="edge">
<title>2&#45;&gt;0</title>
<path fill="none" stroke="grey" stroke-width="2" d="M195.44,-143.87C183.47,-134.84 170.74,-122.59 164.24,-108 155.27,-87.89 161.94,-63.38 169.91,-45.17"/>
<polygon fill="grey" stroke="grey" stroke-width="2" points="173.12,-46.57 174.25,-36.03 166.8,-43.56 173.12,-46.57"/>
</g>
<!-- 4 -->
<g id="node5" class="node">
<title>4</title>
<path fill="none" stroke="#8fd856" stroke-width="2" stroke-dasharray="5,2" d="M261.24,-108C261.24,-108 185.24,-108 185.24,-108 179.24,-108 173.24,-102 173.24,-96 173.24,-96 173.24,-84 173.24,-84 173.24,-78 179.24,-72 185.24,-72 185.24,-72 261.24,-72 261.24,-72 267.24,-72 273.24,-78 273.24,-84 273.24,-84 273.24,-96 273.24,-96 273.24,-102 267.24,-108 261.24,-108"/>
<text text-anchor="middle" x="223.24" y="-87.5" font-family="sans" font-size="10.00">knockout_figures</text>
</g>
<!-- 2&#45;&gt;4 -->
<g id="edge10" class="edge">
<title>2&#45;&gt;4</title>
<path fill="none" stroke="grey" stroke-width="2" d="M223.24,-143.7C223.24,-135.98 223.24,-126.71 223.24,-118.11"/>
<polygon fill="grey" stroke="grey" stroke-width="2" points="226.74,-118.1 223.24,-108.1 219.74,-118.1 226.74,-118.1"/>
</g>
<!-- 3 -->
<g id="node4" class="node">
<title>3</title>
<path fill="none" stroke="#56d0d8" stroke-width="2" stroke-dasharray="5,2" d="M353.24,-108C353.24,-108 303.24,-108 303.24,-108 297.24,-108 291.24,-102 291.24,-96 291.24,-96 291.24,-84 291.24,-84 291.24,-78 297.24,-72 303.24,-72 303.24,-72 353.24,-72 353.24,-72 359.24,-72 365.24,-78 365.24,-84 365.24,-84 365.24,-96 365.24,-96 365.24,-102 359.24,-108 353.24,-108"/>
<text text-anchor="middle" x="328.24" y="-87.5" font-family="sans" font-size="10.00">rate_figures</text>
</g>
<!-- 3&#45;&gt;0 -->
<g id="edge3" class="edge">
<title>3&#45;&gt;0</title>
<path fill="none" stroke="grey" stroke-width="2" d="M293.01,-71.88C271.01,-61.18 242.75,-47.44 220.54,-36.65"/>
<polygon fill="grey" stroke="grey" stroke-width="2" points="221.96,-33.44 211.43,-32.22 218.9,-39.74 221.96,-33.44"/>
</g>
<!-- 4&#45;&gt;0 -->
<g id="edge4" class="edge">
<title>4&#45;&gt;0</title>
<path fill="none" stroke="grey" stroke-width="2" d="M213.6,-71.7C209.11,-63.64 203.68,-53.89 198.72,-44.98"/>
<polygon fill="grey" stroke="grey" stroke-width="2" points="201.69,-43.14 193.77,-36.1 195.58,-46.54 201.69,-43.14"/>
</g>
<!-- 5&#45;&gt;0 -->
<g id="edge5" class="edge">
<title>5&#45;&gt;0</title>
<path fill="none" stroke="grey" stroke-width="2" d="M95.11,-71.88C110.99,-62.45 130.87,-50.66 147.82,-40.61"/>
<polygon fill="grey" stroke="grey" stroke-width="2" points="150.07,-43.34 156.89,-35.23 146.5,-37.32 150.07,-43.34"/>
</g>
<!-- 6 -->
<g id="node7" class="node">
<title>6</title>
<path fill="none" stroke="#68d856" stroke-width="2" d="M471.24,-108C471.24,-108 395.24,-108 395.24,-108 389.24,-108 383.24,-102 383.24,-96 383.24,-96 383.24,-84 383.24,-84 383.24,-78 389.24,-72 395.24,-72 395.24,-72 471.24,-72 471.24,-72 477.24,-72 483.24,-78 483.24,-84 483.24,-84 483.24,-96 483.24,-96 483.24,-102 477.24,-108 471.24,-108"/>
<text text-anchor="middle" x="433.24" y="-87.5" font-family="sans" font-size="10.00">elasticity_figures</text>
</g>
<!-- 6&#45;&gt;0 -->
<g id="edge6" class="edge">
<title>6&#45;&gt;0</title>
<path fill="none" stroke="grey" stroke-width="2" d="M383.04,-74.5C380.06,-73.65 377.11,-72.81 374.24,-72 321.01,-56.91 259.29,-39.76 221,-29.15"/>
<polygon fill="grey" stroke="grey" stroke-width="2" points="221.89,-25.77 211.32,-26.48 220.02,-32.52 221.89,-25.77"/>
</g>
<!-- 7 -->
<g id="node8" class="node">
<title>7</title>
<path fill="none" stroke="#56a9d8" stroke-width="2" stroke-dasharray="5,2" d="M298.24,-252C298.24,-252 240.24,-252 240.24,-252 234.24,-252 228.24,-246 228.24,-240 228.24,-240 228.24,-228 228.24,-228 228.24,-222 234.24,-216 240.24,-216 240.24,-216 298.24,-216 298.24,-216 304.24,-216 310.24,-222 310.24,-228 310.24,-228 310.24,-240 310.24,-240 310.24,-246 304.24,-252 298.24,-252"/>
<text text-anchor="middle" x="269.24" y="-231.5" font-family="sans" font-size="10.00">build_models</text>
</g>
<!-- 7&#45;&gt;1 -->
<g id="edge7" class="edge">
<title>7&#45;&gt;1</title>
<path fill="none" stroke="grey" stroke-width="2" d="M228.16,-218.83C198.63,-208.65 158.39,-194.77 125.4,-183.4"/>
<polygon fill="grey" stroke="grey" stroke-width="2" points="126.46,-180.06 115.87,-180.11 124.18,-186.68 126.46,-180.06"/>
</g>
<!-- 7&#45;&gt;2 -->
<g id="edge8" class="edge">
<title>7&#45;&gt;2</title>
<path fill="none" stroke="grey" stroke-width="2" d="M257.87,-215.7C252.52,-207.56 246.04,-197.69 240.13,-188.7"/>
<polygon fill="grey" stroke="grey" stroke-width="2" points="242.9,-186.54 234.48,-180.1 237.05,-190.38 242.9,-186.54"/>
</g>
<!-- 8 -->
<g id="node9" class="node">
<title>8</title>
<path fill="none" stroke="#d8cb56" stroke-width="2" stroke-dasharray="5,2" d="M330.74,-180C330.74,-180 299.74,-180 299.74,-180 293.74,-180 287.74,-174 287.74,-168 287.74,-168 287.74,-156 287.74,-156 287.74,-150 293.74,-144 299.74,-144 299.74,-144 330.74,-144 330.74,-144 336.74,-144 342.74,-150 342.74,-156 342.74,-156 342.74,-168 342.74,-168 342.74,-174 336.74,-180 330.74,-180"/>
<text text-anchor="middle" x="315.24" y="-159.5" font-family="sans" font-size="10.00">tradeoff</text>
</g>
<!-- 7&#45;&gt;8 -->
<g id="edge14" class="edge">
<title>7&#45;&gt;8</title>
<path fill="none" stroke="grey" stroke-width="2" d="M280.61,-215.7C285.96,-207.56 292.44,-197.69 298.35,-188.7"/>
<polygon fill="grey" stroke="grey" stroke-width="2" points="301.43,-190.38 304,-180.1 295.58,-186.54 301.43,-190.38"/>
</g>
<!-- 9 -->
<g id="node10" class="node">
<title>9</title>
<path fill="none" stroke="#b6d856" stroke-width="2" stroke-dasharray="5,2" d="M437.24,-180C437.24,-180 391.24,-180 391.24,-180 385.24,-180 379.24,-174 379.24,-168 379.24,-168 379.24,-156 379.24,-156 379.24,-150 385.24,-144 391.24,-144 391.24,-144 437.24,-144 437.24,-144 443.24,-144 449.24,-150 449.24,-156 449.24,-156 449.24,-168 449.24,-168 449.24,-174 443.24,-180 437.24,-180"/>
<text text-anchor="middle" x="414.24" y="-159.5" font-family="sans" font-size="10.00">elasticities</text>
</g>
<!-- 7&#45;&gt;9 -->
<g id="edge15" class="edge">
<title>7&#45;&gt;9</title>
<path fill="none" stroke="grey" stroke-width="2" d="M304.71,-215.88C324.43,-206.36 349.14,-194.43 370.1,-184.31"/>
<polygon fill="grey" stroke="grey" stroke-width="2" points="371.65,-187.45 379.13,-179.95 368.61,-181.14 371.65,-187.45"/>
</g>
<!-- 8&#45;&gt;3 -->
<g id="edge9" class="edge">
<title>8&#45;&gt;3</title>
<path fill="none" stroke="grey" stroke-width="2" d="M318.45,-143.7C319.89,-135.98 321.61,-126.71 323.2,-118.11"/>
<polygon fill="grey" stroke="grey" stroke-width="2" points="326.68,-118.58 325.06,-108.1 319.8,-117.3 326.68,-118.58"/>
</g>
<!-- 9&#45;&gt;6 -->
<g id="edge12" class="edge">
<title>9&#45;&gt;6</title>
<path fill="none" stroke="grey" stroke-width="2" d="M418.94,-143.7C421.05,-135.9 423.6,-126.51 425.96,-117.83"/>
<polygon fill="grey" stroke="grey" stroke-width="2" points="429.36,-118.67 428.6,-108.1 422.6,-116.84 429.36,-118.67"/>
</g>
<!-- 10 -->
<g id="node11" class="node">
<title>10</title>
<path fill="none" stroke="#d87d56" stroke-width="2" stroke-dasharray="5,2" d="M285.74,-324C285.74,-324 252.74,-324 252.74,-324 246.74,-324 240.74,-318 240.74,-312 240.74,-312 240.74,-300 240.74,-300 240.74,-294 246.74,-288 252.74,-288 252.74,-288 285.74,-288 285.74,-288 291.74,-288 297.74,-294 297.74,-300 297.74,-300 297.74,-312 297.74,-312 297.74,-318 291.74,-324 285.74,-324"/>
<text text-anchor="middle" x="269.24" y="-303.5" font-family="sans" font-size="10.00">collapse</text>
</g>
<!-- 10&#45;&gt;7 -->
<g id="edge13" class="edge">
<title>10&#45;&gt;7</title>
<path fill="none" stroke="grey" stroke-width="2" d="M269.24,-287.7C269.24,-279.98 269.24,-270.71 269.24,-262.11"/>
<polygon fill="grey" stroke="grey" stroke-width="2" points="272.74,-262.1 269.24,-252.1 265.74,-262.1 272.74,-262.1"/>
</g>
</g>
</svg>
