<?xml version="1.0" encoding="utf-8" standalone="no"?>
<!DOCTYPE svg PUBLIC "-//W3C//DTD SVG 1.1//EN"
  "http://www.w3.org/Graphics/SVG/1.1/DTD/svg11.dtd">
<!-- Created with matplotlib (https://matplotlib.org/) -->
<svg height="345.6pt" version="1.1" viewBox="0 0 460.8 345.6" width="460.8pt" xmlns="http://www.w3.org/2000/svg" xmlns:xlink="http://www.w3.org/1999/xlink">
 <defs>
  <style type="text/css">
*{stroke-linecap:butt;stroke-linejoin:round;}
  </style>
 </defs>
 <g id="figure_1">
  <g id="patch_1">
   <path d="M 0 345.6 
L 460.8 345.6 
L 460.8 0 
L 0 0 
z
" style="fill:#ffffff;"/>
  </g>
  <g id="axes_1">
   <g id="patch_2">
    <path d="M 57.6 307.584 
L 414.72 307.584 
L 414.72 41.472 
L 57.6 41.472 
z
" style="fill:#ffffff;"/>
   </g>
   <g id="PolyCollection_1">
    <path clip-path="url(#p116150499f)" d="M 93.397764 307.583541 
L 93.397764 307.584 
L 95.588414 307.584 
L 97.779063 307.584 
L 99.969712 307.584 
L 102.160362 307.584 
L 104.351011 307.584 
L 106.541661 307.584 
L 108.73231 307.584 
L 110.92296 307.584 
L 113.113609 307.584 
L 115.304259 307.584 
L 117.494908 307.584 
L 119.685558 307.584 
L 121.876207 307.584 
L 124.066857 307.584 
L 126.257506 307.584 
L 128.448155 307.584 
L 130.638805 307.584 
L 132.829454 307.584 
L 135.020104 307.584 
L 137.210753 307.584 
L 139.401403 307.584 
L 141.592052 307.584 
L 143.782702 307.584 
L 145.973351 307.584 
L 148.164001 307.584 
L 150.35465 307.584 
L 152.545299 307.584 
L 154.735949 307.584 
L 156.926598 307.584 
L 159.117248 307.584 
L 161.307897 307.584 
L 163.498547 307.584 
L 165.689196 307.584 
L 167.879846 307.584 
L 170.070495 307.584 
L 172.261145 307.584 
L 174.451794 307.584 
L 176.642444 307.584 
L 178.833093 307.584 
L 181.023742 307.584 
L 183.214392 307.584 
L 185.405041 307.584 
L 187.595691 307.584 
L 189.78634 307.584 
L 191.97699 307.584 
L 194.167639 307.584 
L 196.358289 307.584 
L 198.548938 307.584 
L 200.739588 307.584 
L 202.930237 307.584 
L 205.120887 307.584 
L 207.311536 307.584 
L 209.502185 307.584 
L 211.692835 307.584 
L 213.883484 307.584 
L 216.074134 307.584 
L 218.264783 307.584 
L 220.455433 307.584 
L 222.646082 307.584 
L 224.836732 307.584 
L 227.027381 307.584 
L 229.218031 307.584 
L 231.40868 307.584 
L 233.599329 307.584 
L 235.789979 307.584 
L 237.980628 307.584 
L 240.171278 307.584 
L 242.361927 307.584 
L 244.552577 307.584 
L 246.743226 307.584 
L 248.933876 307.584 
L 251.124525 307.584 
L 253.315175 307.584 
L 255.505824 307.584 
L 257.696474 307.584 
L 259.887123 307.584 
L 262.077772 307.584 
L 264.268422 307.584 
L 266.459071 307.584 
L 268.649721 307.584 
L 270.84037 307.584 
L 273.03102 307.584 
L 275.221669 307.584 
L 277.412319 307.584 
L 279.602968 307.584 
L 281.793618 307.584 
L 283.984267 307.584 
L 286.174917 307.584 
L 288.365566 307.584 
L 290.556215 307.584 
L 292.746865 307.584 
L 294.937514 307.584 
L 297.128164 307.584 
L 299.318813 307.584 
L 301.509463 307.584 
L 303.700112 307.584 
L 305.890762 307.584 
L 308.081411 307.584 
L 310.272061 307.584 
L 312.46271 307.584 
L 314.653359 307.584 
L 316.844009 307.584 
L 319.034658 307.584 
L 321.225308 307.584 
L 323.415957 307.584 
L 325.606607 307.584 
L 327.797256 307.584 
L 329.987906 307.584 
L 332.178555 307.584 
L 334.369205 307.584 
L 336.559854 307.584 
L 338.750504 307.584 
L 340.941153 307.584 
L 343.131802 307.584 
L 345.322452 307.584 
L 347.513101 307.584 
L 349.703751 307.584 
L 351.8944 307.584 
L 354.08505 307.584 
L 356.275699 307.584 
L 358.466349 307.584 
L 360.656998 307.584 
L 362.847648 307.584 
L 365.038297 307.584 
L 367.228947 307.584 
L 369.419596 307.584 
L 371.610245 307.584 
L 371.610245 307.583638 
L 371.610245 307.583638 
L 369.419596 307.583573 
L 367.228947 307.583334 
L 365.038297 307.582871 
L 362.847648 307.582091 
L 360.656998 307.580859 
L 358.466349 307.578997 
L 356.275699 307.576282 
L 354.08505 307.57245 
L 351.8944 307.5672 
L 349.703751 307.560197 
L 347.513101 307.551086 
L 345.322452 307.539496 
L 343.131802 307.525043 
L 340.941153 307.507315 
L 338.750504 307.485821 
L 336.559854 307.459894 
L 334.369205 307.428532 
L 332.178555 307.390171 
L 329.987906 307.342378 
L 327.797256 307.28145 
L 325.606607 307.201857 
L 323.415957 307.095384 
L 321.225308 306.949713 
L 319.034658 306.74598 
L 316.844009 306.454588 
L 314.653359 306.028178 
L 312.46271 305.390318 
L 310.272061 304.418372 
L 308.081411 302.919597 
L 305.890762 300.601584 
L 303.700112 297.042117 
L 301.509463 291.669443 
L 299.318813 283.770324 
L 297.128164 272.546959 
L 294.937514 257.240464 
L 292.746865 237.324277 
L 290.556215 212.745124 
L 288.365566 184.157934 
L 286.174917 153.076392 
L 283.984267 121.857903 
L 281.793618 93.471218 
L 279.602968 71.055138 
L 277.412319 57.350276 
L 275.221669 54.144 
L 273.03102 61.883983 
L 270.84037 79.575925 
L 268.649721 104.99731 
L 266.459071 135.162904 
L 264.268422 166.906223 
L 262.077772 197.42019 
L 259.887123 224.632693 
L 257.696474 247.359917 
L 255.505824 265.252508 
L 253.315175 278.6009 
L 251.124525 288.084244 
L 248.933876 294.53553 
L 246.743226 298.766777 
L 244.552577 301.467362 
L 242.361927 303.165994 
L 240.171278 304.236077 
L 237.980628 304.923429 
L 235.789979 305.380308 
L 233.599329 305.696285 
L 231.40868 305.922079 
L 229.218031 306.086016 
L 227.027381 306.204476 
L 224.836732 306.288035 
L 222.646082 306.344819 
L 220.455433 306.382112 
L 218.264783 306.406923 
L 216.074134 306.425926 
L 213.883484 306.445098 
L 211.692835 306.469245 
L 209.502185 306.501609 
L 207.311536 306.543655 
L 205.120887 306.595099 
L 202.930237 306.654185 
L 200.739588 306.718141 
L 198.548938 306.783738 
L 196.358289 306.847849 
L 194.167639 306.907897 
L 191.97699 306.962147 
L 189.78634 307.009811 
L 187.595691 307.050981 
L 185.405041 307.086451 
L 183.214392 307.117469 
L 181.023742 307.145477 
L 178.833093 307.171874 
L 176.642444 307.197824 
L 174.451794 307.22412 
L 172.261145 307.251115 
L 170.070495 307.278715 
L 167.879846 307.306459 
L 165.689196 307.333638 
L 163.498547 307.359466 
L 161.307897 307.383245 
L 159.117248 307.404499 
L 156.926598 307.423039 
L 154.735949 307.438962 
L 152.545299 307.452577 
L 150.35465 307.464288 
L 148.164001 307.47448 
L 145.973351 307.483433 
L 143.782702 307.491289 
L 141.592052 307.498072 
L 139.401403 307.50376 
L 137.210753 307.508366 
L 135.020104 307.512014 
L 132.829454 307.514973 
L 130.638805 307.517639 
L 128.448155 307.520476 
L 126.257506 307.52391 
L 124.066857 307.528241 
L 121.876207 307.533568 
L 119.685558 307.539767 
L 117.494908 307.54653 
L 115.304259 307.553436 
L 113.113609 307.560047 
L 110.92296 307.565994 
L 108.73231 307.571033 
L 106.541661 307.575061 
L 104.351011 307.578105 
L 102.160362 307.580281 
L 99.969712 307.581753 
L 97.779063 307.582693 
L 95.588414 307.58325 
L 93.397764 307.583541 
z
" style="fill:#1f77b4;fill-opacity:0.25;"/>
   </g>
   <g id="PolyCollection_2">
    <path clip-path="url(#p116150499f)" d="M 73.832727 307.583732 
L 73.832727 307.584 
L 76.302039 307.584 
L 78.771351 307.584 
L 81.240662 307.584 
L 83.709974 307.584 
L 86.179286 307.584 
L 88.648598 307.584 
L 91.117909 307.584 
L 93.587221 307.584 
L 96.056533 307.584 
L 98.525845 307.584 
L 100.995156 307.584 
L 103.464468 307.584 
L 105.93378 307.584 
L 108.403092 307.584 
L 110.872403 307.584 
L 113.341715 307.584 
L 115.811027 307.584 
L 118.280339 307.584 
L 120.74965 307.584 
L 123.218962 307.584 
L 125.688274 307.584 
L 128.157586 307.584 
L 130.626897 307.584 
L 133.096209 307.584 
L 135.565521 307.584 
L 138.034833 307.584 
L 140.504144 307.584 
L 142.973456 307.584 
L 145.442768 307.584 
L 147.91208 307.584 
L 150.381391 307.584 
L 152.850703 307.584 
L 155.320015 307.584 
L 157.789326 307.584 
L 160.258638 307.584 
L 162.72795 307.584 
L 165.197262 307.584 
L 167.666573 307.584 
L 170.135885 307.584 
L 172.605197 307.584 
L 175.074509 307.584 
L 177.54382 307.584 
L 180.013132 307.584 
L 182.482444 307.584 
L 184.951756 307.584 
L 187.421067 307.584 
L 189.890379 307.584 
L 192.359691 307.584 
L 194.829003 307.584 
L 197.298314 307.584 
L 199.767626 307.584 
L 202.236938 307.584 
L 204.70625 307.584 
L 207.175561 307.584 
L 209.644873 307.584 
L 212.114185 307.584 
L 214.583497 307.584 
L 217.052808 307.584 
L 219.52212 307.584 
L 221.991432 307.584 
L 224.460744 307.584 
L 226.930055 307.584 
L 229.399367 307.584 
L 231.868679 307.584 
L 234.33799 307.584 
L 236.807302 307.584 
L 239.276614 307.584 
L 241.745926 307.584 
L 244.215237 307.584 
L 246.684549 307.584 
L 249.153861 307.584 
L 251.623173 307.584 
L 254.092484 307.584 
L 256.561796 307.584 
L 259.031108 307.584 
L 261.50042 307.584 
L 263.969731 307.584 
L 266.439043 307.584 
L 268.908355 307.584 
L 271.377667 307.584 
L 273.846978 307.584 
L 276.31629 307.584 
L 278.785602 307.584 
L 281.254914 307.584 
L 283.724225 307.584 
L 286.193537 307.584 
L 288.662849 307.584 
L 291.132161 307.584 
L 293.601472 307.584 
L 296.070784 307.584 
L 298.540096 307.584 
L 301.009408 307.584 
L 303.478719 307.584 
L 305.948031 307.584 
L 308.417343 307.584 
L 310.886654 307.584 
L 313.355966 307.584 
L 315.825278 307.584 
L 318.29459 307.584 
L 320.763901 307.584 
L 323.233213 307.584 
L 325.702525 307.584 
L 328.171837 307.584 
L 330.641148 307.584 
L 333.11046 307.584 
L 335.579772 307.584 
L 338.049084 307.584 
L 340.518395 307.584 
L 342.987707 307.584 
L 345.457019 307.584 
L 347.926331 307.584 
L 350.395642 307.584 
L 352.864954 307.584 
L 355.334266 307.584 
L 357.803578 307.584 
L 360.272889 307.584 
L 362.742201 307.584 
L 365.211513 307.584 
L 367.680825 307.584 
L 370.150136 307.584 
L 372.619448 307.584 
L 375.08876 307.584 
L 377.558072 307.584 
L 380.027383 307.584 
L 382.496695 307.584 
L 384.966007 307.584 
L 387.435318 307.584 
L 387.435318 307.583563 
L 387.435318 307.583563 
L 384.966007 307.583108 
L 382.496695 307.582136 
L 380.027383 307.580236 
L 377.558072 307.576746 
L 375.08876 307.570694 
L 372.619448 307.560786 
L 370.150136 307.545487 
L 367.680825 307.523251 
L 365.211513 307.492892 
L 362.742201 307.45407 
L 360.272889 307.407734 
L 357.803578 307.35637 
L 355.334266 307.303854 
L 352.864954 307.254855 
L 350.395642 307.213871 
L 347.926331 307.184147 
L 345.457019 307.1668 
L 342.987707 307.160411 
L 340.518395 307.161166 
L 338.049084 307.163415 
L 335.579772 307.160368 
L 333.11046 307.144647 
L 330.641148 307.108495 
L 328.171837 307.043536 
L 325.702525 306.940007 
L 323.233213 306.785207 
L 320.763901 306.560512 
L 318.29459 306.235694 
L 315.825278 305.75853 
L 313.355966 305.036938 
L 310.886654 303.910704 
L 308.417343 302.111222 
L 305.948031 299.212097 
L 303.478719 294.58227 
L 301.009408 287.366139 
L 298.540096 276.527804 
L 296.070784 260.999979 
L 293.601472 239.960663 
L 291.132161 213.214985 
L 288.662849 181.592662 
L 286.193537 147.210103 
L 283.724225 113.430893 
L 281.254914 84.421886 
L 278.785602 64.342145 
L 276.31629 56.367748 
L 273.846978 61.864933 
L 271.377667 80.008344 
L 268.908355 107.990671 
L 266.439043 141.748814 
L 263.969731 176.9448 
L 261.50042 209.873034 
L 259.031108 238.038315 
L 256.561796 260.309338 
L 254.092484 276.714603 
L 251.623173 288.043506 
L 249.153861 295.424132 
L 246.684549 299.995119 
L 244.215237 302.715117 
L 241.745926 304.295316 
L 239.276614 305.21283 
L 236.807302 305.761394 
L 234.33799 306.108487 
L 231.868679 306.343158 
L 229.399367 306.510033 
L 226.930055 306.630936 
L 224.460744 306.717436 
L 221.991432 306.777441 
L 219.52212 306.818069 
L 217.052808 306.846309 
L 214.583497 306.868482 
L 212.114185 306.889272 
L 209.644873 306.910934 
L 207.175561 306.933102 
L 204.70625 306.953336 
L 202.236938 306.968308 
L 199.767626 306.975274 
L 197.298314 306.973378 
L 194.829003 306.964357 
L 192.359691 306.952397 
L 189.890379 306.94315 
L 187.421067 306.942225 
L 184.951756 306.953639 
L 182.482444 306.978781 
L 180.013132 307.016228 
L 177.54382 307.062452 
L 175.074509 307.113067 
L 172.605197 307.164128 
L 170.135885 307.212962 
L 167.666573 307.258331 
L 165.197262 307.300011 
L 162.72795 307.338114 
L 160.258638 307.372519 
L 157.789326 307.402662 
L 155.320015 307.427689 
L 152.850703 307.446851 
L 150.381391 307.459902 
L 147.91208 307.467355 
L 145.442768 307.470491 
L 142.973456 307.471146 
L 140.504144 307.471355 
L 138.034833 307.472953 
L 135.565521 307.477239 
L 133.096209 307.48477 
L 130.626897 307.495327 
L 128.157586 307.508049 
L 125.688274 307.521694 
L 123.218962 307.534949 
L 120.74965 307.546705 
L 118.280339 307.556246 
L 115.811027 307.563319 
L 113.341715 307.568083 
L 110.872403 307.57099 
L 108.403092 307.572631 
L 105.93378 307.573589 
L 103.464468 307.574336 
L 100.995156 307.575169 
L 98.525845 307.576214 
L 96.056533 307.577452 
L 93.587221 307.57878 
L 91.117909 307.580067 
L 88.648598 307.581204 
L 86.179286 307.582126 
L 83.709974 307.582814 
L 81.240662 307.583287 
L 78.771351 307.58358 
L 76.302039 307.583725 
L 73.832727 307.583732 
z
" style="fill:#ff7f0e;fill-opacity:0.25;"/>
   </g>
   <g id="PolyCollection_3">
    <path clip-path="url(#p116150499f)" d="M 74.253968 307.583591 
L 74.253968 307.584 
L 76.806986 307.584 
L 79.360004 307.584 
L 81.913023 307.584 
L 84.466041 307.584 
L 87.019059 307.584 
L 89.572077 307.584 
L 92.125095 307.584 
L 94.678113 307.584 
L 97.231131 307.584 
L 99.78415 307.584 
L 102.337168 307.584 
L 104.890186 307.584 
L 107.443204 307.584 
L 109.996222 307.584 
L 112.54924 307.584 
L 115.102258 307.584 
L 117.655277 307.584 
L 120.208295 307.584 
L 122.761313 307.584 
L 125.314331 307.584 
L 127.867349 307.584 
L 130.420367 307.584 
L 132.973385 307.584 
L 135.526404 307.584 
L 138.079422 307.584 
L 140.63244 307.584 
L 143.185458 307.584 
L 145.738476 307.584 
L 148.291494 307.584 
L 150.844513 307.584 
L 153.397531 307.584 
L 155.950549 307.584 
L 158.503567 307.584 
L 161.056585 307.584 
L 163.609603 307.584 
L 166.162621 307.584 
L 168.71564 307.584 
L 171.268658 307.584 
L 173.821676 307.584 
L 176.374694 307.584 
L 178.927712 307.584 
L 181.48073 307.584 
L 184.033748 307.584 
L 186.586767 307.584 
L 189.139785 307.584 
L 191.692803 307.584 
L 194.245821 307.584 
L 196.798839 307.584 
L 199.351857 307.584 
L 201.904875 307.584 
L 204.457894 307.584 
L 207.010912 307.584 
L 209.56393 307.584 
L 212.116948 307.584 
L 214.669966 307.584 
L 217.222984 307.584 
L 219.776002 307.584 
L 222.329021 307.584 
L 224.882039 307.584 
L 227.435057 307.584 
L 229.988075 307.584 
L 232.541093 307.584 
L 235.094111 307.584 
L 237.647129 307.584 
L 240.200148 307.584 
L 242.753166 307.584 
L 245.306184 307.584 
L 247.859202 307.584 
L 250.41222 307.584 
L 252.965238 307.584 
L 255.518257 307.584 
L 258.071275 307.584 
L 260.624293 307.584 
L 263.177311 307.584 
L 265.730329 307.584 
L 268.283347 307.584 
L 270.836365 307.584 
L 273.389384 307.584 
L 275.942402 307.584 
L 278.49542 307.584 
L 281.048438 307.584 
L 283.601456 307.584 
L 286.154474 307.584 
L 288.707492 307.584 
L 291.260511 307.584 
L 293.813529 307.584 
L 296.366547 307.584 
L 298.919565 307.584 
L 301.472583 307.584 
L 304.025601 307.584 
L 306.578619 307.584 
L 309.131638 307.584 
L 311.684656 307.584 
L 314.237674 307.584 
L 316.790692 307.584 
L 319.34371 307.584 
L 321.896728 307.584 
L 324.449746 307.584 
L 327.002765 307.584 
L 329.555783 307.584 
L 332.108801 307.584 
L 334.661819 307.584 
L 337.214837 307.584 
L 339.767855 307.584 
L 342.320874 307.584 
L 344.873892 307.584 
L 347.42691 307.584 
L 349.979928 307.584 
L 352.532946 307.584 
L 355.085964 307.584 
L 357.638982 307.584 
L 360.192001 307.584 
L 362.745019 307.584 
L 365.298037 307.584 
L 367.851055 307.584 
L 370.404073 307.584 
L 372.957091 307.584 
L 375.510109 307.584 
L 378.063128 307.584 
L 380.616146 307.584 
L 383.169164 307.584 
L 385.722182 307.584 
L 388.2752 307.584 
L 390.828218 307.584 
L 393.381236 307.584 
L 395.934255 307.584 
L 398.487273 307.584 
L 398.487273 307.583261 
L 398.487273 307.583261 
L 395.934255 307.582491 
L 393.381236 307.580969 
L 390.828218 307.578209 
L 388.2752 307.573532 
L 385.722182 307.56609 
L 383.169164 307.554932 
L 380.616146 307.539118 
L 378.063128 307.517833 
L 375.510109 307.490458 
L 372.957091 307.456564 
L 370.404073 307.415831 
L 367.851055 307.367934 
L 365.298037 307.312487 
L 362.745019 307.249085 
L 360.192001 307.17746 
L 357.638982 307.097679 
L 355.085964 307.010304 
L 352.532946 306.916395 
L 349.979928 306.81732 
L 347.42691 306.714333 
L 344.873892 306.607969 
L 342.320874 306.49736 
L 339.767855 306.379658 
L 337.214837 306.249782 
L 334.661819 306.10062 
L 332.108801 305.923653 
L 329.555783 305.709733 
L 327.002765 305.449601 
L 324.449746 305.133618 
L 321.896728 304.750123 
L 319.34371 304.281461 
L 316.790692 303.696051 
L 314.237674 302.933753 
L 311.684656 301.880803 
L 309.131638 300.330825 
L 306.578619 297.93172 
L 304.025601 294.126717 
L 301.472583 288.112344 
L 298.919565 278.853354 
L 296.366547 265.205056 
L 293.813529 246.181927 
L 291.260511 221.364641 
L 288.707492 191.358332 
L 286.154474 158.132357 
L 283.601456 125.038161 
L 281.048438 96.365319 
L 278.49542 76.461313 
L 275.942402 68.646808 
L 273.389384 74.297434 
L 270.836365 92.443212 
L 268.283347 120.046713 
L 265.730329 152.848908 
L 263.177311 186.455956 
L 260.624293 217.284734 
L 258.071275 243.098844 
L 255.518257 263.069745 
L 252.965238 277.47875 
L 250.41222 287.261156 
L 247.859202 293.575935 
L 245.306184 297.506143 
L 242.753166 299.911006 
L 240.200148 301.395955 
L 237.647129 302.34907 
L 235.094111 303.000315 
L 232.541093 303.477391 
L 229.988075 303.847854 
L 227.435057 304.146784 
L 224.882039 304.393271 
L 222.329021 304.599461 
L 219.776002 304.775046 
L 217.222984 304.929065 
L 214.669966 305.070133 
L 212.116948 305.205838 
L 209.56393 305.341859 
L 207.010912 305.481249 
L 204.457894 305.624197 
L 201.904875 305.768448 
L 199.351857 305.910301 
L 196.798839 306.045907 
L 194.245821 306.172477 
L 191.692803 306.289047 
L 189.139785 306.396612 
L 186.586767 306.497667 
L 184.033748 306.595346 
L 181.48073 306.692441 
L 178.927712 306.790561 
L 176.374694 306.889641 
L 173.821676 306.987905 
L 171.268658 307.082269 
L 168.71564 307.169075 
L 166.162621 307.244931 
L 163.609603 307.307452 
L 161.056585 307.355712 
L 158.503567 307.390326 
L 155.950549 307.413195 
L 153.397531 307.427017 
L 150.844513 307.434731 
L 148.291494 307.439024 
L 145.738476 307.442009 
L 143.185458 307.445105 
L 140.63244 307.449082 
L 138.079422 307.454207 
L 135.526404 307.460421 
L 132.973385 307.467481 
L 130.420367 307.475066 
L 127.867349 307.482858 
L 125.314331 307.490601 
L 122.761313 307.498153 
L 120.208295 307.505506 
L 117.655277 307.512772 
L 115.102258 307.52011 
L 112.54924 307.52764 
L 109.996222 307.535366 
L 107.443204 307.543151 
L 104.890186 307.550743 
L 102.337168 307.557842 
L 99.78415 307.564173 
L 97.231131 307.569548 
L 94.678113 307.573888 
L 92.125095 307.57722 
L 89.572077 307.579651 
L 87.019059 307.581336 
L 84.466041 307.582441 
L 81.913023 307.583121 
L 79.360004 307.583499 
L 76.806986 307.58365 
L 74.253968 307.583591 
z
" style="fill:#2ca02c;fill-opacity:0.25;"/>
   </g>
   <g id="matplotlib.axis_1">
    <g id="xtick_1">
     <g id="line2d_1">
      <defs>
       <path d="M 0 0 
L 0 3.5 
" id="m11289511c4" style="stroke:#000000;stroke-width:0.8;"/>
      </defs>
      <g>
       <use style="stroke:#000000;stroke-width:0.8;" x="74.985333" xlink:href="#m11289511c4" y="307.584"/>
      </g>
     </g>
     <g id="text_1">
      <!-- −80 -->
      <defs>
       <path d="M 10.59375 35.5 
L 73.1875 35.5 
L 73.1875 27.203125 
L 10.59375 27.203125 
z
" id="DejaVuSans-8722"/>
       <path d="M 31.78125 34.625 
Q 24.75 34.625 20.71875 30.859375 
Q 16.703125 27.09375 16.703125 20.515625 
Q 16.703125 13.921875 20.71875 10.15625 
Q 24.75 6.390625 31.78125 6.390625 
Q 38.8125 6.390625 42.859375 10.171875 
Q 46.921875 13.96875 46.921875 20.515625 
Q 46.921875 27.09375 42.890625 30.859375 
Q 38.875 34.625 31.78125 34.625 
z
M 21.921875 38.8125 
Q 15.578125 40.375 12.03125 44.71875 
Q 8.5 49.078125 8.5 55.328125 
Q 8.5 64.0625 14.71875 69.140625 
Q 20.953125 74.21875 31.78125 74.21875 
Q 42.671875 74.21875 48.875 69.140625 
Q 55.078125 64.0625 55.078125 55.328125 
Q 55.078125 49.078125 51.53125 44.71875 
Q 48 40.375 41.703125 38.8125 
Q 48.828125 37.15625 52.796875 32.3125 
Q 56.78125 27.484375 56.78125 20.515625 
Q 56.78125 9.90625 50.3125 4.234375 
Q 43.84375 -1.421875 31.78125 -1.421875 
Q 19.734375 -1.421875 13.25 4.234375 
Q 6.78125 9.90625 6.78125 20.515625 
Q 6.78125 27.484375 10.78125 32.3125 
Q 14.796875 37.15625 21.921875 38.8125 
z
M 18.3125 54.390625 
Q 18.3125 48.734375 21.84375 45.5625 
Q 25.390625 42.390625 31.78125 42.390625 
Q 38.140625 42.390625 41.71875 45.5625 
Q 45.3125 48.734375 45.3125 54.390625 
Q 45.3125 60.0625 41.71875 63.234375 
Q 38.140625 66.40625 31.78125 66.40625 
Q 25.390625 66.40625 21.84375 63.234375 
Q 18.3125 60.0625 18.3125 54.390625 
z
" id="DejaVuSans-56"/>
       <path d="M 31.78125 66.40625 
Q 24.171875 66.40625 20.328125 58.90625 
Q 16.5 51.421875 16.5 36.375 
Q 16.5 21.390625 20.328125 13.890625 
Q 24.171875 6.390625 31.78125 6.390625 
Q 39.453125 6.390625 43.28125 13.890625 
Q 47.125 21.390625 47.125 36.375 
Q 47.125 51.421875 43.28125 58.90625 
Q 39.453125 66.40625 31.78125 66.40625 
z
M 31.78125 74.21875 
Q 44.046875 74.21875 50.515625 64.515625 
Q 56.984375 54.828125 56.984375 36.375 
Q 56.984375 17.96875 50.515625 8.265625 
Q 44.046875 -1.421875 31.78125 -1.421875 
Q 19.53125 -1.421875 13.0625 8.265625 
Q 6.59375 17.96875 6.59375 36.375 
Q 6.59375 54.828125 13.0625 64.515625 
Q 19.53125 74.21875 31.78125 74.21875 
z
" id="DejaVuSans-48"/>
      </defs>
      <g transform="translate(64.432989 322.182437)scale(0.1 -0.1)">
       <use xlink:href="#DejaVuSans-8722"/>
       <use x="83.789062" xlink:href="#DejaVuSans-56"/>
       <use x="147.412109" xlink:href="#DejaVuSans-48"/>
      </g>
     </g>
    </g>
    <g id="xtick_2">
     <g id="line2d_2">
      <g>
       <use style="stroke:#000000;stroke-width:0.8;" x="125.138192" xlink:href="#m11289511c4" y="307.584"/>
      </g>
     </g>
     <g id="text_2">
      <!-- −60 -->
      <defs>
       <path d="M 33.015625 40.375 
Q 26.375 40.375 22.484375 35.828125 
Q 18.609375 31.296875 18.609375 23.390625 
Q 18.609375 15.53125 22.484375 10.953125 
Q 26.375 6.390625 33.015625 6.390625 
Q 39.65625 6.390625 43.53125 10.953125 
Q 47.40625 15.53125 47.40625 23.390625 
Q 47.40625 31.296875 43.53125 35.828125 
Q 39.65625 40.375 33.015625 40.375 
z
M 52.59375 71.296875 
L 52.59375 62.3125 
Q 48.875 64.0625 45.09375 64.984375 
Q 41.3125 65.921875 37.59375 65.921875 
Q 27.828125 65.921875 22.671875 59.328125 
Q 17.53125 52.734375 16.796875 39.40625 
Q 19.671875 43.65625 24.015625 45.921875 
Q 28.375 48.1875 33.59375 48.1875 
Q 44.578125 48.1875 50.953125 41.515625 
Q 57.328125 34.859375 57.328125 23.390625 
Q 57.328125 12.15625 50.6875 5.359375 
Q 44.046875 -1.421875 33.015625 -1.421875 
Q 20.359375 -1.421875 13.671875 8.265625 
Q 6.984375 17.96875 6.984375 36.375 
Q 6.984375 53.65625 15.1875 63.9375 
Q 23.390625 74.21875 37.203125 74.21875 
Q 40.921875 74.21875 44.703125 73.484375 
Q 48.484375 72.75 52.59375 71.296875 
z
" id="DejaVuSans-54"/>
      </defs>
      <g transform="translate(114.585848 322.182437)scale(0.1 -0.1)">
       <use xlink:href="#DejaVuSans-8722"/>
       <use x="83.789062" xlink:href="#DejaVuSans-54"/>
       <use x="147.412109" xlink:href="#DejaVuSans-48"/>
      </g>
     </g>
    </g>
    <g id="xtick_3">
     <g id="line2d_3">
      <g>
       <use style="stroke:#000000;stroke-width:0.8;" x="175.291051" xlink:href="#m11289511c4" y="307.584"/>
      </g>
     </g>
     <g id="text_3">
      <!-- −40 -->
      <defs>
       <path d="M 37.796875 64.3125 
L 12.890625 25.390625 
L 37.796875 25.390625 
z
M 35.203125 72.90625 
L 47.609375 72.90625 
L 47.609375 25.390625 
L 58.015625 25.390625 
L 58.015625 17.1875 
L 47.609375 17.1875 
L 47.609375 0 
L 37.796875 0 
L 37.796875 17.1875 
L 4.890625 17.1875 
L 4.890625 26.703125 
z
" id="DejaVuSans-52"/>
      </defs>
      <g transform="translate(164.738707 322.182437)scale(0.1 -0.1)">
       <use xlink:href="#DejaVuSans-8722"/>
       <use x="83.789062" xlink:href="#DejaVuSans-52"/>
       <use x="147.412109" xlink:href="#DejaVuSans-48"/>
      </g>
     </g>
    </g>
    <g id="xtick_4">
     <g id="line2d_4">
      <g>
       <use style="stroke:#000000;stroke-width:0.8;" x="225.44391" xlink:href="#m11289511c4" y="307.584"/>
      </g>
     </g>
     <g id="text_4">
      <!-- −20 -->
      <defs>
       <path d="M 19.1875 8.296875 
L 53.609375 8.296875 
L 53.609375 0 
L 7.328125 0 
L 7.328125 8.296875 
Q 12.9375 14.109375 22.625 23.890625 
Q 32.328125 33.6875 34.8125 36.53125 
Q 39.546875 41.84375 41.421875 45.53125 
Q 43.3125 49.21875 43.3125 52.78125 
Q 43.3125 58.59375 39.234375 62.25 
Q 35.15625 65.921875 28.609375 65.921875 
Q 23.96875 65.921875 18.8125 64.3125 
Q 13.671875 62.703125 7.8125 59.421875 
L 7.8125 69.390625 
Q 13.765625 71.78125 18.9375 73 
Q 24.125 74.21875 28.421875 74.21875 
Q 39.75 74.21875 46.484375 68.546875 
Q 53.21875 62.890625 53.21875 53.421875 
Q 53.21875 48.921875 51.53125 44.890625 
Q 49.859375 40.875 45.40625 35.40625 
Q 44.1875 33.984375 37.640625 27.21875 
Q 31.109375 20.453125 19.1875 8.296875 
z
" id="DejaVuSans-50"/>
      </defs>
      <g transform="translate(214.891567 322.182437)scale(0.1 -0.1)">
       <use xlink:href="#DejaVuSans-8722"/>
       <use x="83.789062" xlink:href="#DejaVuSans-50"/>
       <use x="147.412109" xlink:href="#DejaVuSans-48"/>
      </g>
     </g>
    </g>
    <g id="xtick_5">
     <g id="line2d_5">
      <g>
       <use style="stroke:#000000;stroke-width:0.8;" x="275.59677" xlink:href="#m11289511c4" y="307.584"/>
      </g>
     </g>
     <g id="text_5">
      <!-- 0 -->
      <g transform="translate(272.41552 322.182437)scale(0.1 -0.1)">
       <use xlink:href="#DejaVuSans-48"/>
      </g>
     </g>
    </g>
    <g id="xtick_6">
     <g id="line2d_6">
      <g>
       <use style="stroke:#000000;stroke-width:0.8;" x="325.749629" xlink:href="#m11289511c4" y="307.584"/>
      </g>
     </g>
     <g id="text_6">
      <!-- 20 -->
      <g transform="translate(319.387129 322.182437)scale(0.1 -0.1)">
       <use xlink:href="#DejaVuSans-50"/>
       <use x="63.623047" xlink:href="#DejaVuSans-48"/>
      </g>
     </g>
    </g>
    <g id="xtick_7">
     <g id="line2d_7">
      <g>
       <use style="stroke:#000000;stroke-width:0.8;" x="375.902488" xlink:href="#m11289511c4" y="307.584"/>
      </g>
     </g>
     <g id="text_7">
      <!-- 40 -->
      <g transform="translate(369.539988 322.182437)scale(0.1 -0.1)">
       <use xlink:href="#DejaVuSans-52"/>
       <use x="63.623047" xlink:href="#DejaVuSans-48"/>
      </g>
     </g>
    </g>
    <g id="text_8">
     <!-- elasticity [a.u.] -->
     <defs>
      <path d="M 56.203125 29.59375 
L 56.203125 25.203125 
L 14.890625 25.203125 
Q 15.484375 15.921875 20.484375 11.0625 
Q 25.484375 6.203125 34.421875 6.203125 
Q 39.59375 6.203125 44.453125 7.46875 
Q 49.3125 8.734375 54.109375 11.28125 
L 54.109375 2.78125 
Q 49.265625 0.734375 44.1875 -0.34375 
Q 39.109375 -1.421875 33.890625 -1.421875 
Q 20.796875 -1.421875 13.15625 6.1875 
Q 5.515625 13.8125 5.515625 26.8125 
Q 5.515625 40.234375 12.765625 48.109375 
Q 20.015625 56 32.328125 56 
Q 43.359375 56 49.78125 48.890625 
Q 56.203125 41.796875 56.203125 29.59375 
z
M 47.21875 32.234375 
Q 47.125 39.59375 43.09375 43.984375 
Q 39.0625 48.390625 32.421875 48.390625 
Q 24.90625 48.390625 20.390625 44.140625 
Q 15.875 39.890625 15.1875 32.171875 
z
" id="DejaVuSans-101"/>
      <path d="M 9.421875 75.984375 
L 18.40625 75.984375 
L 18.40625 0 
L 9.421875 0 
z
" id="DejaVuSans-108"/>
      <path d="M 34.28125 27.484375 
Q 23.390625 27.484375 19.1875 25 
Q 14.984375 22.515625 14.984375 16.5 
Q 14.984375 11.71875 18.140625 8.90625 
Q 21.296875 6.109375 26.703125 6.109375 
Q 34.1875 6.109375 38.703125 11.40625 
Q 43.21875 16.703125 43.21875 25.484375 
L 43.21875 27.484375 
z
M 52.203125 31.203125 
L 52.203125 0 
L 43.21875 0 
L 43.21875 8.296875 
Q 40.140625 3.328125 35.546875 0.953125 
Q 30.953125 -1.421875 24.3125 -1.421875 
Q 15.921875 -1.421875 10.953125 3.296875 
Q 6 8.015625 6 15.921875 
Q 6 25.140625 12.171875 29.828125 
Q 18.359375 34.515625 30.609375 34.515625 
L 43.21875 34.515625 
L 43.21875 35.40625 
Q 43.21875 41.609375 39.140625 45 
Q 35.0625 48.390625 27.6875 48.390625 
Q 23 48.390625 18.546875 47.265625 
Q 14.109375 46.140625 10.015625 43.890625 
L 10.015625 52.203125 
Q 14.9375 54.109375 19.578125 55.046875 
Q 24.21875 56 28.609375 56 
Q 40.484375 56 46.34375 49.84375 
Q 52.203125 43.703125 52.203125 31.203125 
z
" id="DejaVuSans-97"/>
      <path d="M 44.28125 53.078125 
L 44.28125 44.578125 
Q 40.484375 46.53125 36.375 47.5 
Q 32.28125 48.484375 27.875 48.484375 
Q 21.1875 48.484375 17.84375 46.4375 
Q 14.5 44.390625 14.5 40.28125 
Q 14.5 37.15625 16.890625 35.375 
Q 19.28125 33.59375 26.515625 31.984375 
L 29.59375 31.296875 
Q 39.15625 29.25 43.1875 25.515625 
Q 47.21875 21.78125 47.21875 15.09375 
Q 47.21875 7.46875 41.1875 3.015625 
Q 35.15625 -1.421875 24.609375 -1.421875 
Q 20.21875 -1.421875 15.453125 -0.5625 
Q 10.6875 0.296875 5.421875 2 
L 5.421875 11.28125 
Q 10.40625 8.6875 15.234375 7.390625 
Q 20.0625 6.109375 24.8125 6.109375 
Q 31.15625 6.109375 34.5625 8.28125 
Q 37.984375 10.453125 37.984375 14.40625 
Q 37.984375 18.0625 35.515625 20.015625 
Q 33.0625 21.96875 24.703125 23.78125 
L 21.578125 24.515625 
Q 13.234375 26.265625 9.515625 29.90625 
Q 5.8125 33.546875 5.8125 39.890625 
Q 5.8125 47.609375 11.28125 51.796875 
Q 16.75 56 26.8125 56 
Q 31.78125 56 36.171875 55.265625 
Q 40.578125 54.546875 44.28125 53.078125 
z
" id="DejaVuSans-115"/>
      <path d="M 18.3125 70.21875 
L 18.3125 54.6875 
L 36.8125 54.6875 
L 36.8125 47.703125 
L 18.3125 47.703125 
L 18.3125 18.015625 
Q 18.3125 11.328125 20.140625 9.421875 
Q 21.96875 7.515625 27.59375 7.515625 
L 36.8125 7.515625 
L 36.8125 0 
L 27.59375 0 
Q 17.1875 0 13.234375 3.875 
Q 9.28125 7.765625 9.28125 18.015625 
L 9.28125 47.703125 
L 2.6875 47.703125 
L 2.6875 54.6875 
L 9.28125 54.6875 
L 9.28125 70.21875 
z
" id="DejaVuSans-116"/>
      <path d="M 9.421875 54.6875 
L 18.40625 54.6875 
L 18.40625 0 
L 9.421875 0 
z
M 9.421875 75.984375 
L 18.40625 75.984375 
L 18.40625 64.59375 
L 9.421875 64.59375 
z
" id="DejaVuSans-105"/>
      <path d="M 48.78125 52.59375 
L 48.78125 44.1875 
Q 44.96875 46.296875 41.140625 47.34375 
Q 37.3125 48.390625 33.40625 48.390625 
Q 24.65625 48.390625 19.8125 42.84375 
Q 14.984375 37.3125 14.984375 27.296875 
Q 14.984375 17.28125 19.8125 11.734375 
Q 24.65625 6.203125 33.40625 6.203125 
Q 37.3125 6.203125 41.140625 7.25 
Q 44.96875 8.296875 48.78125 10.40625 
L 48.78125 2.09375 
Q 45.015625 0.34375 40.984375 -0.53125 
Q 36.96875 -1.421875 32.421875 -1.421875 
Q 20.0625 -1.421875 12.78125 6.34375 
Q 5.515625 14.109375 5.515625 27.296875 
Q 5.515625 40.671875 12.859375 48.328125 
Q 20.21875 56 33.015625 56 
Q 37.15625 56 41.109375 55.140625 
Q 45.0625 54.296875 48.78125 52.59375 
z
" id="DejaVuSans-99"/>
      <path d="M 32.171875 -5.078125 
Q 28.375 -14.84375 24.75 -17.8125 
Q 21.140625 -20.796875 15.09375 -20.796875 
L 7.90625 -20.796875 
L 7.90625 -13.28125 
L 13.1875 -13.28125 
Q 16.890625 -13.28125 18.9375 -11.515625 
Q 21 -9.765625 23.484375 -3.21875 
L 25.09375 0.875 
L 2.984375 54.6875 
L 12.5 54.6875 
L 29.59375 11.921875 
L 46.6875 54.6875 
L 56.203125 54.6875 
z
" id="DejaVuSans-121"/>
      <path id="DejaVuSans-32"/>
      <path d="M 8.59375 75.984375 
L 29.296875 75.984375 
L 29.296875 69 
L 17.578125 69 
L 17.578125 -6.203125 
L 29.296875 -6.203125 
L 29.296875 -13.1875 
L 8.59375 -13.1875 
z
" id="DejaVuSans-91"/>
      <path d="M 10.6875 12.40625 
L 21 12.40625 
L 21 0 
L 10.6875 0 
z
" id="DejaVuSans-46"/>
      <path d="M 8.5 21.578125 
L 8.5 54.6875 
L 17.484375 54.6875 
L 17.484375 21.921875 
Q 17.484375 14.15625 20.5 10.265625 
Q 23.53125 6.390625 29.59375 6.390625 
Q 36.859375 6.390625 41.078125 11.03125 
Q 45.3125 15.671875 45.3125 23.6875 
L 45.3125 54.6875 
L 54.296875 54.6875 
L 54.296875 0 
L 45.3125 0 
L 45.3125 8.40625 
Q 42.046875 3.421875 37.71875 1 
Q 33.40625 -1.421875 27.6875 -1.421875 
Q 18.265625 -1.421875 13.375 4.4375 
Q 8.5 10.296875 8.5 21.578125 
z
M 31.109375 56 
z
" id="DejaVuSans-117"/>
      <path d="M 30.421875 75.984375 
L 30.421875 -13.1875 
L 9.71875 -13.1875 
L 9.71875 -6.203125 
L 21.390625 -6.203125 
L 21.390625 69 
L 9.71875 69 
L 9.71875 75.984375 
z
" id="DejaVuSans-93"/>
     </defs>
     <g transform="translate(198.717031 335.860562)scale(0.1 -0.1)">
      <use xlink:href="#DejaVuSans-101"/>
      <use x="61.523438" xlink:href="#DejaVuSans-108"/>
      <use x="89.306641" xlink:href="#DejaVuSans-97"/>
      <use x="150.585938" xlink:href="#DejaVuSans-115"/>
      <use x="202.685547" xlink:href="#DejaVuSans-116"/>
      <use x="241.894531" xlink:href="#DejaVuSans-105"/>
      <use x="269.677734" xlink:href="#DejaVuSans-99"/>
      <use x="324.658203" xlink:href="#DejaVuSans-105"/>
      <use x="352.441406" xlink:href="#DejaVuSans-116"/>
      <use x="391.650391" xlink:href="#DejaVuSans-121"/>
      <use x="450.830078" xlink:href="#DejaVuSans-32"/>
      <use x="482.617188" xlink:href="#DejaVuSans-91"/>
      <use x="521.630859" xlink:href="#DejaVuSans-97"/>
      <use x="582.910156" xlink:href="#DejaVuSans-46"/>
      <use x="614.697266" xlink:href="#DejaVuSans-117"/>
      <use x="678.076172" xlink:href="#DejaVuSans-46"/>
      <use x="709.863281" xlink:href="#DejaVuSans-93"/>
     </g>
    </g>
   </g>
   <g id="matplotlib.axis_2">
    <g id="ytick_1">
     <g id="line2d_8">
      <defs>
       <path d="M 0 0 
L -3.5 0 
" id="m30cb84dad3" style="stroke:#000000;stroke-width:0.8;"/>
      </defs>
      <g>
       <use style="stroke:#000000;stroke-width:0.8;" x="57.6" xlink:href="#m30cb84dad3" y="307.584"/>
      </g>
     </g>
     <g id="text_9">
      <!-- 0.00 -->
      <g transform="translate(28.334375 311.383219)scale(0.1 -0.1)">
       <use xlink:href="#DejaVuSans-48"/>
       <use x="63.623047" xlink:href="#DejaVuSans-46"/>
       <use x="95.410156" xlink:href="#DejaVuSans-48"/>
       <use x="159.033203" xlink:href="#DejaVuSans-48"/>
      </g>
     </g>
    </g>
    <g id="ytick_2">
     <g id="line2d_9">
      <g>
       <use style="stroke:#000000;stroke-width:0.8;" x="57.6" xlink:href="#m30cb84dad3" y="252.618076"/>
      </g>
     </g>
     <g id="text_10">
      <!-- 0.02 -->
      <g transform="translate(28.334375 256.417295)scale(0.1 -0.1)">
       <use xlink:href="#DejaVuSans-48"/>
       <use x="63.623047" xlink:href="#DejaVuSans-46"/>
       <use x="95.410156" xlink:href="#DejaVuSans-48"/>
       <use x="159.033203" xlink:href="#DejaVuSans-50"/>
      </g>
     </g>
    </g>
    <g id="ytick_3">
     <g id="line2d_10">
      <g>
       <use style="stroke:#000000;stroke-width:0.8;" x="57.6" xlink:href="#m30cb84dad3" y="197.652152"/>
      </g>
     </g>
     <g id="text_11">
      <!-- 0.04 -->
      <g transform="translate(28.334375 201.451371)scale(0.1 -0.1)">
       <use xlink:href="#DejaVuSans-48"/>
       <use x="63.623047" xlink:href="#DejaVuSans-46"/>
       <use x="95.410156" xlink:href="#DejaVuSans-48"/>
       <use x="159.033203" xlink:href="#DejaVuSans-52"/>
      </g>
     </g>
    </g>
    <g id="ytick_4">
     <g id="line2d_11">
      <g>
       <use style="stroke:#000000;stroke-width:0.8;" x="57.6" xlink:href="#m30cb84dad3" y="142.686228"/>
      </g>
     </g>
     <g id="text_12">
      <!-- 0.06 -->
      <g transform="translate(28.334375 146.485447)scale(0.1 -0.1)">
       <use xlink:href="#DejaVuSans-48"/>
       <use x="63.623047" xlink:href="#DejaVuSans-46"/>
       <use x="95.410156" xlink:href="#DejaVuSans-48"/>
       <use x="159.033203" xlink:href="#DejaVuSans-54"/>
      </g>
     </g>
    </g>
    <g id="ytick_5">
     <g id="line2d_12">
      <g>
       <use style="stroke:#000000;stroke-width:0.8;" x="57.6" xlink:href="#m30cb84dad3" y="87.720304"/>
      </g>
     </g>
     <g id="text_13">
      <!-- 0.08 -->
      <g transform="translate(28.334375 91.519523)scale(0.1 -0.1)">
       <use xlink:href="#DejaVuSans-48"/>
       <use x="63.623047" xlink:href="#DejaVuSans-46"/>
       <use x="95.410156" xlink:href="#DejaVuSans-48"/>
       <use x="159.033203" xlink:href="#DejaVuSans-56"/>
      </g>
     </g>
    </g>
    <g id="text_14">
     <!-- density -->
     <defs>
      <path d="M 45.40625 46.390625 
L 45.40625 75.984375 
L 54.390625 75.984375 
L 54.390625 0 
L 45.40625 0 
L 45.40625 8.203125 
Q 42.578125 3.328125 38.25 0.953125 
Q 33.9375 -1.421875 27.875 -1.421875 
Q 17.96875 -1.421875 11.734375 6.484375 
Q 5.515625 14.40625 5.515625 27.296875 
Q 5.515625 40.1875 11.734375 48.09375 
Q 17.96875 56 27.875 56 
Q 33.9375 56 38.25 53.625 
Q 42.578125 51.265625 45.40625 46.390625 
z
M 14.796875 27.296875 
Q 14.796875 17.390625 18.875 11.75 
Q 22.953125 6.109375 30.078125 6.109375 
Q 37.203125 6.109375 41.296875 11.75 
Q 45.40625 17.390625 45.40625 27.296875 
Q 45.40625 37.203125 41.296875 42.84375 
Q 37.203125 48.484375 30.078125 48.484375 
Q 22.953125 48.484375 18.875 42.84375 
Q 14.796875 37.203125 14.796875 27.296875 
z
" id="DejaVuSans-100"/>
      <path d="M 54.890625 33.015625 
L 54.890625 0 
L 45.90625 0 
L 45.90625 32.71875 
Q 45.90625 40.484375 42.875 44.328125 
Q 39.84375 48.1875 33.796875 48.1875 
Q 26.515625 48.1875 22.3125 43.546875 
Q 18.109375 38.921875 18.109375 30.90625 
L 18.109375 0 
L 9.078125 0 
L 9.078125 54.6875 
L 18.109375 54.6875 
L 18.109375 46.1875 
Q 21.34375 51.125 25.703125 53.5625 
Q 30.078125 56 35.796875 56 
Q 45.21875 56 50.046875 50.171875 
Q 54.890625 44.34375 54.890625 33.015625 
z
" id="DejaVuSans-110"/>
     </defs>
     <g transform="translate(22.254687 192.860812)rotate(-90)scale(0.1 -0.1)">
      <use xlink:href="#DejaVuSans-100"/>
      <use x="63.476562" xlink:href="#DejaVuSans-101"/>
      <use x="125" xlink:href="#DejaVuSans-110"/>
      <use x="188.378906" xlink:href="#DejaVuSans-115"/>
      <use x="240.478516" xlink:href="#DejaVuSans-105"/>
      <use x="268.261719" xlink:href="#DejaVuSans-116"/>
      <use x="307.470703" xlink:href="#DejaVuSans-121"/>
     </g>
    </g>
   </g>
   <g id="line2d_13">
    <path clip-path="url(#p116150499f)" d="M 93.397764 307.583541 
L 148.164001 307.47448 
L 170.070495 307.278715 
L 196.358289 306.847849 
L 213.883484 306.445098 
L 224.836732 306.288035 
L 229.218031 306.086016 
L 233.599329 305.696285 
L 235.789979 305.380308 
L 237.980628 304.923429 
L 240.171278 304.236077 
L 242.361927 303.165994 
L 244.552577 301.467362 
L 246.743226 298.766777 
L 248.933876 294.53553 
L 251.124525 288.084244 
L 253.315175 278.6009 
L 255.505824 265.252508 
L 257.696474 247.359917 
L 259.887123 224.632693 
L 262.077772 197.42019 
L 268.649721 104.99731 
L 270.84037 79.575925 
L 273.03102 61.883983 
L 275.221669 54.144 
L 277.412319 57.350276 
L 279.602968 71.055138 
L 281.793618 93.471218 
L 283.984267 121.857903 
L 288.365566 184.157934 
L 290.556215 212.745124 
L 292.746865 237.324277 
L 294.937514 257.240464 
L 297.128164 272.546959 
L 299.318813 283.770324 
L 301.509463 291.669443 
L 303.700112 297.042117 
L 305.890762 300.601584 
L 308.081411 302.919597 
L 310.272061 304.418372 
L 312.46271 305.390318 
L 314.653359 306.028178 
L 316.844009 306.454588 
L 321.225308 306.949713 
L 327.797256 307.28145 
L 338.750504 307.485821 
L 358.466349 307.578997 
L 371.610245 307.583638 
L 371.610245 307.583638 
" style="fill:none;stroke:#1f77b4;stroke-linecap:square;stroke-width:1.5;"/>
   </g>
   <g id="line2d_14">
    <path clip-path="url(#p116150499f)" d="M 73.832727 307.583732 
L 138.034833 307.472953 
L 160.258638 307.372519 
L 194.829003 306.964357 
L 209.644873 306.910934 
L 224.460744 306.717436 
L 229.399367 306.510033 
L 234.33799 306.108487 
L 236.807302 305.761394 
L 239.276614 305.21283 
L 241.745926 304.295316 
L 244.215237 302.715117 
L 246.684549 299.995119 
L 249.153861 295.424132 
L 251.623173 288.043506 
L 254.092484 276.714603 
L 256.561796 260.309338 
L 259.031108 238.038315 
L 261.50042 209.873034 
L 263.969731 176.9448 
L 268.908355 107.990671 
L 271.377667 80.008344 
L 273.846978 61.864933 
L 276.31629 56.367748 
L 278.785602 64.342145 
L 281.254914 84.421886 
L 283.724225 113.430893 
L 288.662849 181.592662 
L 291.132161 213.214985 
L 293.601472 239.960663 
L 296.070784 260.999979 
L 298.540096 276.527804 
L 301.009408 287.366139 
L 303.478719 294.58227 
L 305.948031 299.212097 
L 308.417343 302.111222 
L 310.886654 303.910704 
L 313.355966 305.036938 
L 315.825278 305.75853 
L 318.29459 306.235694 
L 323.233213 306.785207 
L 328.171837 307.043536 
L 335.579772 307.160368 
L 352.864954 307.254855 
L 372.619448 307.560786 
L 387.435318 307.583563 
L 387.435318 307.583563 
" style="fill:none;stroke:#ff7f0e;stroke-linecap:square;stroke-width:1.5;"/>
   </g>
   <g id="line2d_15">
    <path clip-path="url(#p116150499f)" d="M 74.253968 307.583591 
L 130.420367 307.475066 
L 163.609603 307.307452 
L 176.374694 306.889641 
L 199.351857 305.910301 
L 224.882039 304.393271 
L 229.988075 303.847854 
L 235.094111 303.000315 
L 237.647129 302.34907 
L 240.200148 301.395955 
L 242.753166 299.911006 
L 245.306184 297.506143 
L 247.859202 293.575935 
L 250.41222 287.261156 
L 252.965238 277.47875 
L 255.518257 263.069745 
L 258.071275 243.098844 
L 260.624293 217.284734 
L 263.177311 186.455956 
L 268.283347 120.046713 
L 270.836365 92.443212 
L 273.389384 74.297434 
L 275.942402 68.646808 
L 278.49542 76.461313 
L 281.048438 96.365319 
L 283.601456 125.038161 
L 288.707492 191.358332 
L 291.260511 221.364641 
L 293.813529 246.181927 
L 296.366547 265.205056 
L 298.919565 278.853354 
L 301.472583 288.112344 
L 304.025601 294.126717 
L 306.578619 297.93172 
L 309.131638 300.330825 
L 311.684656 301.880803 
L 314.237674 302.933753 
L 316.790692 303.696051 
L 319.34371 304.281461 
L 324.449746 305.133618 
L 329.555783 305.709733 
L 337.214837 306.249782 
L 349.979928 306.81732 
L 365.298037 307.312487 
L 380.616146 307.539118 
L 398.487273 307.583261 
L 398.487273 307.583261 
" style="fill:none;stroke:#2ca02c;stroke-linecap:square;stroke-width:1.5;"/>
   </g>
   <g id="patch_3">
    <path d="M 57.6 307.584 
L 57.6 41.472 
" style="fill:none;stroke:#000000;stroke-linecap:square;stroke-linejoin:miter;stroke-width:0.8;"/>
   </g>
   <g id="patch_4">
    <path d="M 414.72 307.584 
L 414.72 41.472 
" style="fill:none;stroke:#000000;stroke-linecap:square;stroke-linejoin:miter;stroke-width:0.8;"/>
   </g>
   <g id="patch_5">
    <path d="M 57.6 307.584 
L 414.72 307.584 
" style="fill:none;stroke:#000000;stroke-linecap:square;stroke-linejoin:miter;stroke-width:0.8;"/>
   </g>
   <g id="patch_6">
    <path d="M 57.6 41.472 
L 414.72 41.472 
" style="fill:none;stroke:#000000;stroke-linecap:square;stroke-linejoin:miter;stroke-width:0.8;"/>
   </g>
   <g id="legend_1">
    <g id="patch_7">
     <path d="M 317.329375 93.506375 
L 407.72 93.506375 
Q 409.72 93.506375 409.72 91.506375 
L 409.72 48.472 
Q 409.72 46.472 407.72 46.472 
L 317.329375 46.472 
Q 315.329375 46.472 315.329375 48.472 
L 315.329375 91.506375 
Q 315.329375 93.506375 317.329375 93.506375 
z
" style="fill:#ffffff;opacity:0.8;stroke:#cccccc;stroke-linejoin:miter;"/>
    </g>
    <g id="line2d_16">
     <path d="M 319.329375 54.570438 
L 339.329375 54.570438 
" style="fill:none;stroke:#1f77b4;stroke-linecap:square;stroke-width:1.5;"/>
    </g>
    <g id="line2d_17"/>
    <g id="text_15">
     <!-- ERR260275 -->
     <defs>
      <path d="M 9.8125 72.90625 
L 55.90625 72.90625 
L 55.90625 64.59375 
L 19.671875 64.59375 
L 19.671875 43.015625 
L 54.390625 43.015625 
L 54.390625 34.71875 
L 19.671875 34.71875 
L 19.671875 8.296875 
L 56.78125 8.296875 
L 56.78125 0 
L 9.8125 0 
z
" id="DejaVuSans-69"/>
      <path d="M 44.390625 34.1875 
Q 47.5625 33.109375 50.5625 29.59375 
Q 53.5625 26.078125 56.59375 19.921875 
L 66.609375 0 
L 56 0 
L 46.6875 18.703125 
Q 43.0625 26.03125 39.671875 28.421875 
Q 36.28125 30.8125 30.421875 30.8125 
L 19.671875 30.8125 
L 19.671875 0 
L 9.8125 0 
L 9.8125 72.90625 
L 32.078125 72.90625 
Q 44.578125 72.90625 50.734375 67.671875 
Q 56.890625 62.453125 56.890625 51.90625 
Q 56.890625 45.015625 53.6875 40.46875 
Q 50.484375 35.9375 44.390625 34.1875 
z
M 19.671875 64.796875 
L 19.671875 38.921875 
L 32.078125 38.921875 
Q 39.203125 38.921875 42.84375 42.21875 
Q 46.484375 45.515625 46.484375 51.90625 
Q 46.484375 58.296875 42.84375 61.546875 
Q 39.203125 64.796875 32.078125 64.796875 
z
" id="DejaVuSans-82"/>
      <path d="M 8.203125 72.90625 
L 55.078125 72.90625 
L 55.078125 68.703125 
L 28.609375 0 
L 18.3125 0 
L 43.21875 64.59375 
L 8.203125 64.59375 
z
" id="DejaVuSans-55"/>
      <path d="M 10.796875 72.90625 
L 49.515625 72.90625 
L 49.515625 64.59375 
L 19.828125 64.59375 
L 19.828125 46.734375 
Q 21.96875 47.46875 24.109375 47.828125 
Q 26.265625 48.1875 28.421875 48.1875 
Q 40.625 48.1875 47.75 41.5 
Q 54.890625 34.8125 54.890625 23.390625 
Q 54.890625 11.625 47.5625 5.09375 
Q 40.234375 -1.421875 26.90625 -1.421875 
Q 22.3125 -1.421875 17.546875 -0.640625 
Q 12.796875 0.140625 7.71875 1.703125 
L 7.71875 11.625 
Q 12.109375 9.234375 16.796875 8.0625 
Q 21.484375 6.890625 26.703125 6.890625 
Q 35.15625 6.890625 40.078125 11.328125 
Q 45.015625 15.765625 45.015625 23.390625 
Q 45.015625 31 40.078125 35.4375 
Q 35.15625 39.890625 26.703125 39.890625 
Q 22.75 39.890625 18.8125 39.015625 
Q 14.890625 38.140625 10.796875 36.28125 
z
" id="DejaVuSans-53"/>
     </defs>
     <g transform="translate(347.329375 58.070438)scale(0.1 -0.1)">
      <use xlink:href="#DejaVuSans-69"/>
      <use x="63.183594" xlink:href="#DejaVuSans-82"/>
      <use x="132.666016" xlink:href="#DejaVuSans-82"/>
      <use x="202.148438" xlink:href="#DejaVuSans-50"/>
      <use x="265.771484" xlink:href="#DejaVuSans-54"/>
      <use x="329.394531" xlink:href="#DejaVuSans-48"/>
      <use x="393.017578" xlink:href="#DejaVuSans-50"/>
      <use x="456.640625" xlink:href="#DejaVuSans-55"/>
      <use x="520.263672" xlink:href="#DejaVuSans-53"/>
     </g>
    </g>
    <g id="line2d_18">
     <path d="M 319.329375 69.248563 
L 339.329375 69.248563 
" style="fill:none;stroke:#ff7f0e;stroke-linecap:square;stroke-width:1.5;"/>
    </g>
    <g id="line2d_19"/>
    <g id="text_16">
     <!-- ERR260214 -->
     <defs>
      <path d="M 12.40625 8.296875 
L 28.515625 8.296875 
L 28.515625 63.921875 
L 10.984375 60.40625 
L 10.984375 69.390625 
L 28.421875 72.90625 
L 38.28125 72.90625 
L 38.28125 8.296875 
L 54.390625 8.296875 
L 54.390625 0 
L 12.40625 0 
z
" id="DejaVuSans-49"/>
     </defs>
     <g transform="translate(347.329375 72.748563)scale(0.1 -0.1)">
      <use xlink:href="#DejaVuSans-69"/>
      <use x="63.183594" xlink:href="#DejaVuSans-82"/>
      <use x="132.666016" xlink:href="#DejaVuSans-82"/>
      <use x="202.148438" xlink:href="#DejaVuSans-50"/>
      <use x="265.771484" xlink:href="#DejaVuSans-54"/>
      <use x="329.394531" xlink:href="#DejaVuSans-48"/>
      <use x="393.017578" xlink:href="#DejaVuSans-50"/>
      <use x="456.640625" xlink:href="#DejaVuSans-49"/>
      <use x="520.263672" xlink:href="#DejaVuSans-52"/>
     </g>
    </g>
    <g id="line2d_20">
     <path d="M 319.329375 83.926688 
L 339.329375 83.926688 
" style="fill:none;stroke:#2ca02c;stroke-linecap:square;stroke-width:1.5;"/>
    </g>
    <g id="line2d_21"/>
    <g id="text_17">
     <!-- ERR260174 -->
     <g transform="translate(347.329375 87.426688)scale(0.1 -0.1)">
      <use xlink:href="#DejaVuSans-69"/>
      <use x="63.183594" xlink:href="#DejaVuSans-82"/>
      <use x="132.666016" xlink:href="#DejaVuSans-82"/>
      <use x="202.148438" xlink:href="#DejaVuSans-50"/>
      <use x="265.771484" xlink:href="#DejaVuSans-54"/>
      <use x="329.394531" xlink:href="#DejaVuSans-48"/>
      <use x="393.017578" xlink:href="#DejaVuSans-49"/>
      <use x="456.640625" xlink:href="#DejaVuSans-55"/>
      <use x="520.263672" xlink:href="#DejaVuSans-52"/>
     </g>
    </g>
   </g>
  </g>
 </g>
 <defs>
  <clipPath id="p116150499f">
   <rect height="266.112" width="357.12" x="57.6" y="41.472"/>
  </clipPath>
 </defs>
</svg>
